<mxfile host="app.diagrams.net" agent="Mozilla/5.0 (Windows NT 10.0; Win64; x64) AppleWebKit/537.36 (KHTML, like Gecko) Chrome/131.0.0.0 Safari/537.36" version="24.8.6">
  <diagram id="C5RBs43oDa-KdzZeNtuy" name="Page-1">
    <mxGraphModel dx="2868" dy="1644" grid="0" gridSize="10" guides="1" tooltips="1" connect="1" arrows="1" fold="1" page="1" pageScale="1" pageWidth="4681" pageHeight="3300" math="0" shadow="0">
      <root>
        <mxCell id="WIyWlLk6GJQsqaUBKTNV-0" />
        <mxCell id="WIyWlLk6GJQsqaUBKTNV-1" parent="WIyWlLk6GJQsqaUBKTNV-0" />
        <mxCell id="evVA_SM7a0cTugfseml1-192" style="edgeStyle=orthogonalEdgeStyle;rounded=0;orthogonalLoop=1;jettySize=auto;html=1;exitX=1;exitY=0.5;exitDx=0;exitDy=0;entryX=0;entryY=0.5;entryDx=0;entryDy=0;fontSize=12;startSize=8;endSize=8;" edge="1" parent="WIyWlLk6GJQsqaUBKTNV-1" source="evVA_SM7a0cTugfseml1-17" target="evVA_SM7a0cTugfseml1-97">
          <mxGeometry relative="1" as="geometry" />
        </mxCell>
        <mxCell id="evVA_SM7a0cTugfseml1-219" style="edgeStyle=orthogonalEdgeStyle;rounded=0;orthogonalLoop=1;jettySize=auto;html=1;exitX=1;exitY=0.5;exitDx=0;exitDy=0;entryX=0;entryY=0.5;entryDx=0;entryDy=0;fontSize=12;startSize=8;endSize=8;" edge="1" parent="WIyWlLk6GJQsqaUBKTNV-1" source="evVA_SM7a0cTugfseml1-17" target="evVA_SM7a0cTugfseml1-218">
          <mxGeometry relative="1" as="geometry" />
        </mxCell>
        <mxCell id="evVA_SM7a0cTugfseml1-226" style="edgeStyle=orthogonalEdgeStyle;rounded=0;orthogonalLoop=1;jettySize=auto;html=1;exitX=1;exitY=0.5;exitDx=0;exitDy=0;entryX=0;entryY=0.5;entryDx=0;entryDy=0;fontSize=12;startSize=8;endSize=8;" edge="1" parent="WIyWlLk6GJQsqaUBKTNV-1" source="evVA_SM7a0cTugfseml1-17" target="evVA_SM7a0cTugfseml1-225">
          <mxGeometry relative="1" as="geometry">
            <Array as="points">
              <mxPoint x="230" y="847" />
              <mxPoint x="230" y="2515" />
            </Array>
          </mxGeometry>
        </mxCell>
        <mxCell id="evVA_SM7a0cTugfseml1-233" style="edgeStyle=orthogonalEdgeStyle;rounded=0;orthogonalLoop=1;jettySize=auto;html=1;exitX=1;exitY=0.5;exitDx=0;exitDy=0;entryX=0;entryY=0.5;entryDx=0;entryDy=0;fontSize=12;startSize=8;endSize=8;" edge="1" parent="WIyWlLk6GJQsqaUBKTNV-1" source="evVA_SM7a0cTugfseml1-17" target="evVA_SM7a0cTugfseml1-232">
          <mxGeometry relative="1" as="geometry" />
        </mxCell>
        <mxCell id="evVA_SM7a0cTugfseml1-17" value="Inicio" style="swimlane;fontStyle=0;childLayout=stackLayout;horizontal=1;startSize=30;horizontalStack=0;resizeParent=1;resizeParentMax=0;resizeLast=0;collapsible=1;marginBottom=0;whiteSpace=wrap;html=1;" vertex="1" parent="WIyWlLk6GJQsqaUBKTNV-1">
          <mxGeometry x="44" y="832" width="68" height="30" as="geometry" />
        </mxCell>
        <mxCell id="evVA_SM7a0cTugfseml1-56" style="edgeStyle=orthogonalEdgeStyle;rounded=0;orthogonalLoop=1;jettySize=auto;html=1;exitX=1;exitY=0.5;exitDx=0;exitDy=0;entryX=0;entryY=0.5;entryDx=0;entryDy=0;fontSize=12;startSize=8;endSize=8;" edge="1" parent="WIyWlLk6GJQsqaUBKTNV-1" source="evVA_SM7a0cTugfseml1-60" target="evVA_SM7a0cTugfseml1-63">
          <mxGeometry relative="1" as="geometry" />
        </mxCell>
        <mxCell id="evVA_SM7a0cTugfseml1-57" style="edgeStyle=orthogonalEdgeStyle;rounded=0;orthogonalLoop=1;jettySize=auto;html=1;exitX=1;exitY=0.5;exitDx=0;exitDy=0;entryX=0;entryY=0.5;entryDx=0;entryDy=0;fontSize=12;startSize=8;endSize=8;" edge="1" parent="WIyWlLk6GJQsqaUBKTNV-1" source="evVA_SM7a0cTugfseml1-60" target="evVA_SM7a0cTugfseml1-68">
          <mxGeometry relative="1" as="geometry" />
        </mxCell>
        <mxCell id="evVA_SM7a0cTugfseml1-58" style="edgeStyle=orthogonalEdgeStyle;rounded=0;orthogonalLoop=1;jettySize=auto;html=1;exitX=1;exitY=0.5;exitDx=0;exitDy=0;entryX=0;entryY=0.5;entryDx=0;entryDy=0;fontSize=12;startSize=8;endSize=8;" edge="1" parent="WIyWlLk6GJQsqaUBKTNV-1" source="evVA_SM7a0cTugfseml1-60" target="evVA_SM7a0cTugfseml1-75">
          <mxGeometry relative="1" as="geometry">
            <Array as="points">
              <mxPoint x="782" y="327" />
              <mxPoint x="782" y="508" />
            </Array>
          </mxGeometry>
        </mxCell>
        <mxCell id="evVA_SM7a0cTugfseml1-59" style="edgeStyle=orthogonalEdgeStyle;rounded=0;orthogonalLoop=1;jettySize=auto;html=1;exitX=1;exitY=0.5;exitDx=0;exitDy=0;entryX=0;entryY=0.5;entryDx=0;entryDy=0;fontSize=12;startSize=8;endSize=8;" edge="1" parent="WIyWlLk6GJQsqaUBKTNV-1" source="evVA_SM7a0cTugfseml1-60" target="evVA_SM7a0cTugfseml1-80">
          <mxGeometry relative="1" as="geometry">
            <Array as="points">
              <mxPoint x="782" y="327" />
              <mxPoint x="782" y="795" />
            </Array>
          </mxGeometry>
        </mxCell>
        <mxCell id="evVA_SM7a0cTugfseml1-60" value="Muebles" style="swimlane;fontStyle=0;childLayout=stackLayout;horizontal=1;startSize=30;horizontalStack=0;resizeParent=1;resizeParentMax=0;resizeLast=0;collapsible=1;marginBottom=0;whiteSpace=wrap;html=1;" vertex="1" parent="WIyWlLk6GJQsqaUBKTNV-1">
          <mxGeometry x="678" y="312" width="68" height="30" as="geometry" />
        </mxCell>
        <mxCell id="evVA_SM7a0cTugfseml1-61" style="edgeStyle=orthogonalEdgeStyle;rounded=0;orthogonalLoop=1;jettySize=auto;html=1;exitX=1;exitY=0.5;exitDx=0;exitDy=0;entryX=0;entryY=0.5;entryDx=0;entryDy=0;fontSize=12;startSize=8;endSize=8;" edge="1" parent="WIyWlLk6GJQsqaUBKTNV-1" source="evVA_SM7a0cTugfseml1-63" target="evVA_SM7a0cTugfseml1-81">
          <mxGeometry relative="1" as="geometry" />
        </mxCell>
        <mxCell id="evVA_SM7a0cTugfseml1-62" style="edgeStyle=orthogonalEdgeStyle;rounded=0;orthogonalLoop=1;jettySize=auto;html=1;exitX=1;exitY=0.5;exitDx=0;exitDy=0;entryX=0;entryY=0.5;entryDx=0;entryDy=0;fontSize=12;startSize=8;endSize=8;" edge="1" parent="WIyWlLk6GJQsqaUBKTNV-1" source="evVA_SM7a0cTugfseml1-63" target="evVA_SM7a0cTugfseml1-82">
          <mxGeometry relative="1" as="geometry" />
        </mxCell>
        <mxCell id="evVA_SM7a0cTugfseml1-63" value="Cocinas" style="swimlane;fontStyle=0;childLayout=stackLayout;horizontal=1;startSize=30;horizontalStack=0;resizeParent=1;resizeParentMax=0;resizeLast=0;collapsible=1;marginBottom=0;whiteSpace=wrap;html=1;" vertex="1" parent="WIyWlLk6GJQsqaUBKTNV-1">
          <mxGeometry x="818" y="36" width="68" height="30" as="geometry" />
        </mxCell>
        <mxCell id="evVA_SM7a0cTugfseml1-64" style="edgeStyle=orthogonalEdgeStyle;rounded=0;orthogonalLoop=1;jettySize=auto;html=1;exitX=1;exitY=0.5;exitDx=0;exitDy=0;entryX=0;entryY=0.5;entryDx=0;entryDy=0;fontSize=12;startSize=8;endSize=8;" edge="1" parent="WIyWlLk6GJQsqaUBKTNV-1" source="evVA_SM7a0cTugfseml1-68" target="evVA_SM7a0cTugfseml1-83">
          <mxGeometry relative="1" as="geometry" />
        </mxCell>
        <mxCell id="evVA_SM7a0cTugfseml1-65" style="edgeStyle=orthogonalEdgeStyle;rounded=0;orthogonalLoop=1;jettySize=auto;html=1;exitX=1;exitY=0.5;exitDx=0;exitDy=0;entryX=0;entryY=0.5;entryDx=0;entryDy=0;fontSize=12;startSize=8;endSize=8;" edge="1" parent="WIyWlLk6GJQsqaUBKTNV-1" source="evVA_SM7a0cTugfseml1-68" target="evVA_SM7a0cTugfseml1-84">
          <mxGeometry relative="1" as="geometry" />
        </mxCell>
        <mxCell id="evVA_SM7a0cTugfseml1-66" style="edgeStyle=orthogonalEdgeStyle;rounded=0;orthogonalLoop=1;jettySize=auto;html=1;exitX=1;exitY=0.5;exitDx=0;exitDy=0;entryX=0;entryY=0.5;entryDx=0;entryDy=0;fontSize=12;startSize=8;endSize=8;" edge="1" parent="WIyWlLk6GJQsqaUBKTNV-1" source="evVA_SM7a0cTugfseml1-68" target="evVA_SM7a0cTugfseml1-85">
          <mxGeometry relative="1" as="geometry" />
        </mxCell>
        <mxCell id="evVA_SM7a0cTugfseml1-67" style="edgeStyle=orthogonalEdgeStyle;rounded=0;orthogonalLoop=1;jettySize=auto;html=1;exitX=1;exitY=0.5;exitDx=0;exitDy=0;entryX=0;entryY=0.5;entryDx=0;entryDy=0;fontSize=12;startSize=8;endSize=8;" edge="1" parent="WIyWlLk6GJQsqaUBKTNV-1" source="evVA_SM7a0cTugfseml1-68" target="evVA_SM7a0cTugfseml1-86">
          <mxGeometry relative="1" as="geometry" />
        </mxCell>
        <mxCell id="evVA_SM7a0cTugfseml1-68" value="BaÃ±os" style="swimlane;fontStyle=0;childLayout=stackLayout;horizontal=1;startSize=30;horizontalStack=0;resizeParent=1;resizeParentMax=0;resizeLast=0;collapsible=1;marginBottom=0;whiteSpace=wrap;html=1;" vertex="1" parent="WIyWlLk6GJQsqaUBKTNV-1">
          <mxGeometry x="818" y="211" width="68" height="30" as="geometry">
            <mxRectangle x="667" y="423" width="78" height="30" as="alternateBounds" />
          </mxGeometry>
        </mxCell>
        <mxCell id="evVA_SM7a0cTugfseml1-69" style="edgeStyle=orthogonalEdgeStyle;rounded=0;orthogonalLoop=1;jettySize=auto;html=1;exitX=1;exitY=0.5;exitDx=0;exitDy=0;entryX=0;entryY=0.5;entryDx=0;entryDy=0;fontSize=12;startSize=8;endSize=8;" edge="1" parent="WIyWlLk6GJQsqaUBKTNV-1" source="evVA_SM7a0cTugfseml1-75" target="evVA_SM7a0cTugfseml1-87">
          <mxGeometry relative="1" as="geometry" />
        </mxCell>
        <mxCell id="evVA_SM7a0cTugfseml1-70" style="edgeStyle=orthogonalEdgeStyle;rounded=0;orthogonalLoop=1;jettySize=auto;html=1;exitX=1;exitY=0.5;exitDx=0;exitDy=0;entryX=0;entryY=0.5;entryDx=0;entryDy=0;fontSize=12;startSize=8;endSize=8;" edge="1" parent="WIyWlLk6GJQsqaUBKTNV-1" source="evVA_SM7a0cTugfseml1-75" target="evVA_SM7a0cTugfseml1-88">
          <mxGeometry relative="1" as="geometry" />
        </mxCell>
        <mxCell id="evVA_SM7a0cTugfseml1-71" style="edgeStyle=orthogonalEdgeStyle;rounded=0;orthogonalLoop=1;jettySize=auto;html=1;exitX=1;exitY=0.5;exitDx=0;exitDy=0;entryX=0;entryY=0.5;entryDx=0;entryDy=0;fontSize=12;startSize=8;endSize=8;" edge="1" parent="WIyWlLk6GJQsqaUBKTNV-1" source="evVA_SM7a0cTugfseml1-75" target="evVA_SM7a0cTugfseml1-89">
          <mxGeometry relative="1" as="geometry" />
        </mxCell>
        <mxCell id="evVA_SM7a0cTugfseml1-72" style="edgeStyle=orthogonalEdgeStyle;rounded=0;orthogonalLoop=1;jettySize=auto;html=1;exitX=1;exitY=0.5;exitDx=0;exitDy=0;entryX=0;entryY=0.5;entryDx=0;entryDy=0;fontSize=12;startSize=8;endSize=8;" edge="1" parent="WIyWlLk6GJQsqaUBKTNV-1" source="evVA_SM7a0cTugfseml1-75" target="evVA_SM7a0cTugfseml1-90">
          <mxGeometry relative="1" as="geometry" />
        </mxCell>
        <mxCell id="evVA_SM7a0cTugfseml1-73" style="edgeStyle=orthogonalEdgeStyle;rounded=0;orthogonalLoop=1;jettySize=auto;html=1;exitX=1;exitY=0.5;exitDx=0;exitDy=0;entryX=0;entryY=0.5;entryDx=0;entryDy=0;fontSize=12;startSize=8;endSize=8;" edge="1" parent="WIyWlLk6GJQsqaUBKTNV-1" source="evVA_SM7a0cTugfseml1-75" target="evVA_SM7a0cTugfseml1-91">
          <mxGeometry relative="1" as="geometry" />
        </mxCell>
        <mxCell id="evVA_SM7a0cTugfseml1-74" style="edgeStyle=orthogonalEdgeStyle;rounded=0;orthogonalLoop=1;jettySize=auto;html=1;exitX=1;exitY=0.5;exitDx=0;exitDy=0;entryX=0;entryY=0.5;entryDx=0;entryDy=0;fontSize=12;startSize=8;endSize=8;" edge="1" parent="WIyWlLk6GJQsqaUBKTNV-1" source="evVA_SM7a0cTugfseml1-75" target="evVA_SM7a0cTugfseml1-92">
          <mxGeometry relative="1" as="geometry" />
        </mxCell>
        <mxCell id="evVA_SM7a0cTugfseml1-75" value="Dormitorios" style="swimlane;fontStyle=0;childLayout=stackLayout;horizontal=1;startSize=30;horizontalStack=0;resizeParent=1;resizeParentMax=0;resizeLast=0;collapsible=1;marginBottom=0;whiteSpace=wrap;html=1;" vertex="1" parent="WIyWlLk6GJQsqaUBKTNV-1">
          <mxGeometry x="816" y="493" width="68" height="30" as="geometry">
            <mxRectangle x="667" y="423" width="78" height="30" as="alternateBounds" />
          </mxGeometry>
        </mxCell>
        <mxCell id="evVA_SM7a0cTugfseml1-76" style="edgeStyle=orthogonalEdgeStyle;rounded=0;orthogonalLoop=1;jettySize=auto;html=1;exitX=1;exitY=0.5;exitDx=0;exitDy=0;entryX=0;entryY=0.5;entryDx=0;entryDy=0;fontSize=12;startSize=8;endSize=8;" edge="1" parent="WIyWlLk6GJQsqaUBKTNV-1" source="evVA_SM7a0cTugfseml1-80" target="evVA_SM7a0cTugfseml1-93">
          <mxGeometry relative="1" as="geometry" />
        </mxCell>
        <mxCell id="evVA_SM7a0cTugfseml1-77" style="edgeStyle=orthogonalEdgeStyle;rounded=0;orthogonalLoop=1;jettySize=auto;html=1;exitX=1;exitY=0.5;exitDx=0;exitDy=0;entryX=0;entryY=0.5;entryDx=0;entryDy=0;fontSize=12;startSize=8;endSize=8;" edge="1" parent="WIyWlLk6GJQsqaUBKTNV-1" source="evVA_SM7a0cTugfseml1-80" target="evVA_SM7a0cTugfseml1-94">
          <mxGeometry relative="1" as="geometry" />
        </mxCell>
        <mxCell id="evVA_SM7a0cTugfseml1-78" style="edgeStyle=orthogonalEdgeStyle;rounded=0;orthogonalLoop=1;jettySize=auto;html=1;exitX=1;exitY=0.5;exitDx=0;exitDy=0;entryX=0;entryY=0.5;entryDx=0;entryDy=0;fontSize=12;startSize=8;endSize=8;" edge="1" parent="WIyWlLk6GJQsqaUBKTNV-1" source="evVA_SM7a0cTugfseml1-80" target="evVA_SM7a0cTugfseml1-95">
          <mxGeometry relative="1" as="geometry" />
        </mxCell>
        <mxCell id="evVA_SM7a0cTugfseml1-79" style="edgeStyle=orthogonalEdgeStyle;rounded=0;orthogonalLoop=1;jettySize=auto;html=1;exitX=1;exitY=0.5;exitDx=0;exitDy=0;entryX=0;entryY=0.5;entryDx=0;entryDy=0;fontSize=12;startSize=8;endSize=8;" edge="1" parent="WIyWlLk6GJQsqaUBKTNV-1" source="evVA_SM7a0cTugfseml1-80" target="evVA_SM7a0cTugfseml1-96">
          <mxGeometry relative="1" as="geometry" />
        </mxCell>
        <mxCell id="evVA_SM7a0cTugfseml1-80" value="DecoraciÃ³n" style="swimlane;fontStyle=0;childLayout=stackLayout;horizontal=1;startSize=30;horizontalStack=0;resizeParent=1;resizeParentMax=0;resizeLast=0;collapsible=1;marginBottom=0;whiteSpace=wrap;html=1;" vertex="1" parent="WIyWlLk6GJQsqaUBKTNV-1">
          <mxGeometry x="818" y="780" width="68" height="30" as="geometry">
            <mxRectangle x="667" y="423" width="78" height="30" as="alternateBounds" />
          </mxGeometry>
        </mxCell>
        <mxCell id="evVA_SM7a0cTugfseml1-156" style="edgeStyle=orthogonalEdgeStyle;rounded=0;orthogonalLoop=1;jettySize=auto;html=1;exitX=1;exitY=0.5;exitDx=0;exitDy=0;entryX=0;entryY=0.5;entryDx=0;entryDy=0;fontSize=12;startSize=8;endSize=8;" edge="1" parent="WIyWlLk6GJQsqaUBKTNV-1" source="evVA_SM7a0cTugfseml1-81" target="evVA_SM7a0cTugfseml1-155">
          <mxGeometry relative="1" as="geometry" />
        </mxCell>
        <mxCell id="evVA_SM7a0cTugfseml1-81" value="MÃ³dulos de cocina" style="swimlane;fontStyle=0;childLayout=stackLayout;horizontal=1;startSize=30;horizontalStack=0;resizeParent=1;resizeParentMax=0;resizeLast=0;collapsible=1;marginBottom=0;whiteSpace=wrap;html=1;" vertex="1" parent="WIyWlLk6GJQsqaUBKTNV-1">
          <mxGeometry x="948" y="6" width="68" height="30" as="geometry" />
        </mxCell>
        <mxCell id="evVA_SM7a0cTugfseml1-157" style="edgeStyle=orthogonalEdgeStyle;rounded=0;orthogonalLoop=1;jettySize=auto;html=1;exitX=1;exitY=0.5;exitDx=0;exitDy=0;entryX=0;entryY=0.5;entryDx=0;entryDy=0;fontSize=12;startSize=8;endSize=8;" edge="1" parent="WIyWlLk6GJQsqaUBKTNV-1" source="evVA_SM7a0cTugfseml1-82" target="evVA_SM7a0cTugfseml1-155">
          <mxGeometry relative="1" as="geometry" />
        </mxCell>
        <mxCell id="evVA_SM7a0cTugfseml1-82" value="Sillas / Mesas" style="swimlane;fontStyle=0;childLayout=stackLayout;horizontal=1;startSize=30;horizontalStack=0;resizeParent=1;resizeParentMax=0;resizeLast=0;collapsible=1;marginBottom=0;whiteSpace=wrap;html=1;" vertex="1" parent="WIyWlLk6GJQsqaUBKTNV-1">
          <mxGeometry x="948" y="66" width="68" height="30" as="geometry" />
        </mxCell>
        <mxCell id="evVA_SM7a0cTugfseml1-176" style="edgeStyle=orthogonalEdgeStyle;rounded=0;orthogonalLoop=1;jettySize=auto;html=1;exitX=1;exitY=0.5;exitDx=0;exitDy=0;entryX=0;entryY=0.5;entryDx=0;entryDy=0;fontSize=12;startSize=8;endSize=8;" edge="1" parent="WIyWlLk6GJQsqaUBKTNV-1" source="evVA_SM7a0cTugfseml1-83" target="evVA_SM7a0cTugfseml1-155">
          <mxGeometry relative="1" as="geometry" />
        </mxCell>
        <mxCell id="evVA_SM7a0cTugfseml1-83" value="Muebles de lavabo" style="swimlane;fontStyle=0;childLayout=stackLayout;horizontal=1;startSize=30;horizontalStack=0;resizeParent=1;resizeParentMax=0;resizeLast=0;collapsible=1;marginBottom=0;whiteSpace=wrap;html=1;" vertex="1" parent="WIyWlLk6GJQsqaUBKTNV-1">
          <mxGeometry x="948" y="131" width="68" height="30" as="geometry">
            <mxRectangle x="667" y="423" width="78" height="30" as="alternateBounds" />
          </mxGeometry>
        </mxCell>
        <mxCell id="evVA_SM7a0cTugfseml1-177" style="edgeStyle=orthogonalEdgeStyle;rounded=0;orthogonalLoop=1;jettySize=auto;html=1;exitX=1;exitY=0.5;exitDx=0;exitDy=0;fontSize=12;startSize=8;endSize=8;entryX=0;entryY=0.5;entryDx=0;entryDy=0;" edge="1" parent="WIyWlLk6GJQsqaUBKTNV-1" source="evVA_SM7a0cTugfseml1-84" target="evVA_SM7a0cTugfseml1-155">
          <mxGeometry relative="1" as="geometry">
            <mxPoint x="1440.0588235294117" y="821.2352941176471" as="targetPoint" />
          </mxGeometry>
        </mxCell>
        <mxCell id="evVA_SM7a0cTugfseml1-84" value="Espejos" style="swimlane;fontStyle=0;childLayout=stackLayout;horizontal=1;startSize=30;horizontalStack=0;resizeParent=1;resizeParentMax=0;resizeLast=0;collapsible=1;marginBottom=0;whiteSpace=wrap;html=1;" vertex="1" parent="WIyWlLk6GJQsqaUBKTNV-1">
          <mxGeometry x="948" y="185" width="68" height="30" as="geometry">
            <mxRectangle x="667" y="423" width="78" height="30" as="alternateBounds" />
          </mxGeometry>
        </mxCell>
        <mxCell id="evVA_SM7a0cTugfseml1-178" style="edgeStyle=orthogonalEdgeStyle;rounded=0;orthogonalLoop=1;jettySize=auto;html=1;exitX=1;exitY=0.5;exitDx=0;exitDy=0;entryX=0;entryY=0.5;entryDx=0;entryDy=0;fontSize=12;startSize=8;endSize=8;" edge="1" parent="WIyWlLk6GJQsqaUBKTNV-1" source="evVA_SM7a0cTugfseml1-85" target="evVA_SM7a0cTugfseml1-155">
          <mxGeometry relative="1" as="geometry" />
        </mxCell>
        <mxCell id="evVA_SM7a0cTugfseml1-85" value="Armarios" style="swimlane;fontStyle=0;childLayout=stackLayout;horizontal=1;startSize=30;horizontalStack=0;resizeParent=1;resizeParentMax=0;resizeLast=0;collapsible=1;marginBottom=0;whiteSpace=wrap;html=1;" vertex="1" parent="WIyWlLk6GJQsqaUBKTNV-1">
          <mxGeometry x="948" y="238" width="68" height="30" as="geometry">
            <mxRectangle x="667" y="423" width="78" height="30" as="alternateBounds" />
          </mxGeometry>
        </mxCell>
        <mxCell id="evVA_SM7a0cTugfseml1-179" style="edgeStyle=orthogonalEdgeStyle;rounded=0;orthogonalLoop=1;jettySize=auto;html=1;exitX=1;exitY=0.5;exitDx=0;exitDy=0;entryX=0;entryY=0.5;entryDx=0;entryDy=0;fontSize=12;startSize=8;endSize=8;" edge="1" parent="WIyWlLk6GJQsqaUBKTNV-1" source="evVA_SM7a0cTugfseml1-86" target="evVA_SM7a0cTugfseml1-155">
          <mxGeometry relative="1" as="geometry" />
        </mxCell>
        <mxCell id="evVA_SM7a0cTugfseml1-86" value="EstanterÃ­as" style="swimlane;fontStyle=0;childLayout=stackLayout;horizontal=1;startSize=30;horizontalStack=0;resizeParent=1;resizeParentMax=0;resizeLast=0;collapsible=1;marginBottom=0;whiteSpace=wrap;html=1;" vertex="1" parent="WIyWlLk6GJQsqaUBKTNV-1">
          <mxGeometry x="948" y="294" width="68" height="30" as="geometry">
            <mxRectangle x="667" y="423" width="78" height="30" as="alternateBounds" />
          </mxGeometry>
        </mxCell>
        <mxCell id="evVA_SM7a0cTugfseml1-180" style="edgeStyle=orthogonalEdgeStyle;rounded=0;orthogonalLoop=1;jettySize=auto;html=1;exitX=1;exitY=0.5;exitDx=0;exitDy=0;entryX=0;entryY=0.5;entryDx=0;entryDy=0;fontSize=12;startSize=8;endSize=8;" edge="1" parent="WIyWlLk6GJQsqaUBKTNV-1" source="evVA_SM7a0cTugfseml1-87" target="evVA_SM7a0cTugfseml1-155">
          <mxGeometry relative="1" as="geometry" />
        </mxCell>
        <mxCell id="evVA_SM7a0cTugfseml1-87" value="Mesitas de noche" style="swimlane;fontStyle=0;childLayout=stackLayout;horizontal=1;startSize=30;horizontalStack=0;resizeParent=1;resizeParentMax=0;resizeLast=0;collapsible=1;marginBottom=0;whiteSpace=wrap;html=1;" vertex="1" parent="WIyWlLk6GJQsqaUBKTNV-1">
          <mxGeometry x="948" y="360" width="68" height="30" as="geometry">
            <mxRectangle x="667" y="423" width="78" height="30" as="alternateBounds" />
          </mxGeometry>
        </mxCell>
        <mxCell id="evVA_SM7a0cTugfseml1-181" style="edgeStyle=orthogonalEdgeStyle;rounded=0;orthogonalLoop=1;jettySize=auto;html=1;exitX=1;exitY=0.5;exitDx=0;exitDy=0;entryX=0;entryY=0.5;entryDx=0;entryDy=0;fontSize=12;startSize=8;endSize=8;" edge="1" parent="WIyWlLk6GJQsqaUBKTNV-1" source="evVA_SM7a0cTugfseml1-88" target="evVA_SM7a0cTugfseml1-155">
          <mxGeometry relative="1" as="geometry" />
        </mxCell>
        <mxCell id="evVA_SM7a0cTugfseml1-88" value="CÃ³modas" style="swimlane;fontStyle=0;childLayout=stackLayout;horizontal=1;startSize=30;horizontalStack=0;resizeParent=1;resizeParentMax=0;resizeLast=0;collapsible=1;marginBottom=0;whiteSpace=wrap;html=1;" vertex="1" parent="WIyWlLk6GJQsqaUBKTNV-1">
          <mxGeometry x="948" y="414" width="68" height="30" as="geometry">
            <mxRectangle x="667" y="423" width="78" height="30" as="alternateBounds" />
          </mxGeometry>
        </mxCell>
        <mxCell id="evVA_SM7a0cTugfseml1-182" style="edgeStyle=orthogonalEdgeStyle;rounded=0;orthogonalLoop=1;jettySize=auto;html=1;exitX=1;exitY=0.5;exitDx=0;exitDy=0;entryX=0;entryY=0.5;entryDx=0;entryDy=0;fontSize=12;startSize=8;endSize=8;" edge="1" parent="WIyWlLk6GJQsqaUBKTNV-1" source="evVA_SM7a0cTugfseml1-89" target="evVA_SM7a0cTugfseml1-155">
          <mxGeometry relative="1" as="geometry" />
        </mxCell>
        <mxCell id="evVA_SM7a0cTugfseml1-89" value="Tocadores / Escritorios" style="swimlane;fontStyle=0;childLayout=stackLayout;horizontal=1;startSize=30;horizontalStack=0;resizeParent=1;resizeParentMax=0;resizeLast=0;collapsible=1;marginBottom=0;whiteSpace=wrap;html=1;" vertex="1" parent="WIyWlLk6GJQsqaUBKTNV-1">
          <mxGeometry x="948" y="467" width="68" height="30" as="geometry">
            <mxRectangle x="667" y="423" width="78" height="30" as="alternateBounds" />
          </mxGeometry>
        </mxCell>
        <mxCell id="evVA_SM7a0cTugfseml1-183" style="edgeStyle=orthogonalEdgeStyle;rounded=0;orthogonalLoop=1;jettySize=auto;html=1;exitX=1;exitY=0.5;exitDx=0;exitDy=0;entryX=0;entryY=0.5;entryDx=0;entryDy=0;fontSize=12;startSize=8;endSize=8;" edge="1" parent="WIyWlLk6GJQsqaUBKTNV-1" source="evVA_SM7a0cTugfseml1-90" target="evVA_SM7a0cTugfseml1-155">
          <mxGeometry relative="1" as="geometry" />
        </mxCell>
        <mxCell id="evVA_SM7a0cTugfseml1-90" value="Cabeceros" style="swimlane;fontStyle=0;childLayout=stackLayout;horizontal=1;startSize=30;horizontalStack=0;resizeParent=1;resizeParentMax=0;resizeLast=0;collapsible=1;marginBottom=0;whiteSpace=wrap;html=1;" vertex="1" parent="WIyWlLk6GJQsqaUBKTNV-1">
          <mxGeometry x="948" y="520" width="68" height="30" as="geometry">
            <mxRectangle x="667" y="423" width="78" height="30" as="alternateBounds" />
          </mxGeometry>
        </mxCell>
        <mxCell id="evVA_SM7a0cTugfseml1-184" style="edgeStyle=orthogonalEdgeStyle;rounded=0;orthogonalLoop=1;jettySize=auto;html=1;exitX=1;exitY=0.5;exitDx=0;exitDy=0;entryX=0;entryY=0.5;entryDx=0;entryDy=0;fontSize=12;startSize=8;endSize=8;" edge="1" parent="WIyWlLk6GJQsqaUBKTNV-1" source="evVA_SM7a0cTugfseml1-91" target="evVA_SM7a0cTugfseml1-155">
          <mxGeometry relative="1" as="geometry" />
        </mxCell>
        <mxCell id="evVA_SM7a0cTugfseml1-91" value="Zapateros" style="swimlane;fontStyle=0;childLayout=stackLayout;horizontal=1;startSize=30;horizontalStack=0;resizeParent=1;resizeParentMax=0;resizeLast=0;collapsible=1;marginBottom=0;whiteSpace=wrap;html=1;" vertex="1" parent="WIyWlLk6GJQsqaUBKTNV-1">
          <mxGeometry x="948" y="573" width="68" height="30" as="geometry">
            <mxRectangle x="667" y="423" width="78" height="30" as="alternateBounds" />
          </mxGeometry>
        </mxCell>
        <mxCell id="evVA_SM7a0cTugfseml1-185" style="edgeStyle=orthogonalEdgeStyle;rounded=0;orthogonalLoop=1;jettySize=auto;html=1;exitX=1;exitY=0.5;exitDx=0;exitDy=0;entryX=0;entryY=0.5;entryDx=0;entryDy=0;fontSize=12;startSize=8;endSize=8;" edge="1" parent="WIyWlLk6GJQsqaUBKTNV-1" source="evVA_SM7a0cTugfseml1-92" target="evVA_SM7a0cTugfseml1-155">
          <mxGeometry relative="1" as="geometry" />
        </mxCell>
        <mxCell id="evVA_SM7a0cTugfseml1-92" value="Sillas" style="swimlane;fontStyle=0;childLayout=stackLayout;horizontal=1;startSize=30;horizontalStack=0;resizeParent=1;resizeParentMax=0;resizeLast=0;collapsible=1;marginBottom=0;whiteSpace=wrap;html=1;" vertex="1" parent="WIyWlLk6GJQsqaUBKTNV-1">
          <mxGeometry x="948" y="626" width="68" height="30" as="geometry">
            <mxRectangle x="667" y="423" width="78" height="30" as="alternateBounds" />
          </mxGeometry>
        </mxCell>
        <mxCell id="evVA_SM7a0cTugfseml1-186" style="edgeStyle=orthogonalEdgeStyle;rounded=0;orthogonalLoop=1;jettySize=auto;html=1;exitX=1;exitY=0.5;exitDx=0;exitDy=0;entryX=0;entryY=0.5;entryDx=0;entryDy=0;fontSize=12;startSize=8;endSize=8;" edge="1" parent="WIyWlLk6GJQsqaUBKTNV-1" source="evVA_SM7a0cTugfseml1-93" target="evVA_SM7a0cTugfseml1-155">
          <mxGeometry relative="1" as="geometry" />
        </mxCell>
        <mxCell id="evVA_SM7a0cTugfseml1-93" value="IluminaciÃ³n" style="swimlane;fontStyle=0;childLayout=stackLayout;horizontal=1;startSize=30;horizontalStack=0;resizeParent=1;resizeParentMax=0;resizeLast=0;collapsible=1;marginBottom=0;whiteSpace=wrap;html=1;" vertex="1" parent="WIyWlLk6GJQsqaUBKTNV-1">
          <mxGeometry x="948" y="696" width="68" height="30" as="geometry">
            <mxRectangle x="667" y="423" width="78" height="30" as="alternateBounds" />
          </mxGeometry>
        </mxCell>
        <mxCell id="evVA_SM7a0cTugfseml1-187" style="edgeStyle=orthogonalEdgeStyle;rounded=0;orthogonalLoop=1;jettySize=auto;html=1;exitX=1;exitY=0.5;exitDx=0;exitDy=0;entryX=0;entryY=0.5;entryDx=0;entryDy=0;fontSize=12;startSize=8;endSize=8;" edge="1" parent="WIyWlLk6GJQsqaUBKTNV-1" source="evVA_SM7a0cTugfseml1-94" target="evVA_SM7a0cTugfseml1-155">
          <mxGeometry relative="1" as="geometry" />
        </mxCell>
        <mxCell id="evVA_SM7a0cTugfseml1-94" value="Vajilla" style="swimlane;fontStyle=0;childLayout=stackLayout;horizontal=1;startSize=30;horizontalStack=0;resizeParent=1;resizeParentMax=0;resizeLast=0;collapsible=1;marginBottom=0;whiteSpace=wrap;html=1;" vertex="1" parent="WIyWlLk6GJQsqaUBKTNV-1">
          <mxGeometry x="948" y="750" width="68" height="30" as="geometry">
            <mxRectangle x="667" y="423" width="78" height="30" as="alternateBounds" />
          </mxGeometry>
        </mxCell>
        <mxCell id="evVA_SM7a0cTugfseml1-188" style="edgeStyle=orthogonalEdgeStyle;rounded=0;orthogonalLoop=1;jettySize=auto;html=1;exitX=1;exitY=0.5;exitDx=0;exitDy=0;entryX=0;entryY=0.5;entryDx=0;entryDy=0;fontSize=12;startSize=8;endSize=8;" edge="1" parent="WIyWlLk6GJQsqaUBKTNV-1" source="evVA_SM7a0cTugfseml1-95" target="evVA_SM7a0cTugfseml1-155">
          <mxGeometry relative="1" as="geometry" />
        </mxCell>
        <mxCell id="evVA_SM7a0cTugfseml1-95" value="Cuadros" style="swimlane;fontStyle=0;childLayout=stackLayout;horizontal=1;startSize=30;horizontalStack=0;resizeParent=1;resizeParentMax=0;resizeLast=0;collapsible=1;marginBottom=0;whiteSpace=wrap;html=1;" vertex="1" parent="WIyWlLk6GJQsqaUBKTNV-1">
          <mxGeometry x="948" y="803" width="68" height="30" as="geometry">
            <mxRectangle x="667" y="423" width="78" height="30" as="alternateBounds" />
          </mxGeometry>
        </mxCell>
        <mxCell id="evVA_SM7a0cTugfseml1-189" style="edgeStyle=orthogonalEdgeStyle;rounded=0;orthogonalLoop=1;jettySize=auto;html=1;exitX=1;exitY=0.5;exitDx=0;exitDy=0;entryX=0;entryY=0.5;entryDx=0;entryDy=0;fontSize=12;startSize=8;endSize=8;" edge="1" parent="WIyWlLk6GJQsqaUBKTNV-1" source="evVA_SM7a0cTugfseml1-96" target="evVA_SM7a0cTugfseml1-155">
          <mxGeometry relative="1" as="geometry" />
        </mxCell>
        <mxCell id="evVA_SM7a0cTugfseml1-96" value="Jarrones" style="swimlane;fontStyle=0;childLayout=stackLayout;horizontal=1;startSize=30;horizontalStack=0;resizeParent=1;resizeParentMax=0;resizeLast=0;collapsible=1;marginBottom=0;whiteSpace=wrap;html=1;" vertex="1" parent="WIyWlLk6GJQsqaUBKTNV-1">
          <mxGeometry x="948" y="859" width="68" height="30" as="geometry">
            <mxRectangle x="667" y="423" width="78" height="30" as="alternateBounds" />
          </mxGeometry>
        </mxCell>
        <mxCell id="evVA_SM7a0cTugfseml1-99" style="edgeStyle=orthogonalEdgeStyle;rounded=0;orthogonalLoop=1;jettySize=auto;html=1;exitX=1;exitY=0.5;exitDx=0;exitDy=0;entryX=0;entryY=0.5;entryDx=0;entryDy=0;fontSize=12;startSize=8;endSize=8;" edge="1" parent="WIyWlLk6GJQsqaUBKTNV-1" source="evVA_SM7a0cTugfseml1-97" target="evVA_SM7a0cTugfseml1-60">
          <mxGeometry relative="1" as="geometry" />
        </mxCell>
        <mxCell id="evVA_SM7a0cTugfseml1-100" style="edgeStyle=orthogonalEdgeStyle;rounded=0;orthogonalLoop=1;jettySize=auto;html=1;exitX=1;exitY=0.5;exitDx=0;exitDy=0;entryX=0;entryY=0.5;entryDx=0;entryDy=0;fontSize=12;startSize=8;endSize=8;" edge="1" parent="WIyWlLk6GJQsqaUBKTNV-1" source="evVA_SM7a0cTugfseml1-97" target="evVA_SM7a0cTugfseml1-98">
          <mxGeometry relative="1" as="geometry" />
        </mxCell>
        <mxCell id="evVA_SM7a0cTugfseml1-194" style="edgeStyle=orthogonalEdgeStyle;rounded=0;orthogonalLoop=1;jettySize=auto;html=1;exitX=1;exitY=0.5;exitDx=0;exitDy=0;entryX=0;entryY=0.5;entryDx=0;entryDy=0;fontSize=12;startSize=8;endSize=8;" edge="1" parent="WIyWlLk6GJQsqaUBKTNV-1" source="evVA_SM7a0cTugfseml1-97" target="evVA_SM7a0cTugfseml1-193">
          <mxGeometry relative="1" as="geometry" />
        </mxCell>
        <mxCell id="evVA_SM7a0cTugfseml1-211" style="edgeStyle=orthogonalEdgeStyle;rounded=0;orthogonalLoop=1;jettySize=auto;html=1;exitX=1;exitY=0.5;exitDx=0;exitDy=0;entryX=0;entryY=0.5;entryDx=0;entryDy=0;fontSize=12;startSize=8;endSize=8;" edge="1" parent="WIyWlLk6GJQsqaUBKTNV-1" source="evVA_SM7a0cTugfseml1-97" target="evVA_SM7a0cTugfseml1-210">
          <mxGeometry relative="1" as="geometry" />
        </mxCell>
        <mxCell id="evVA_SM7a0cTugfseml1-97" value="Productos" style="swimlane;fontStyle=0;childLayout=stackLayout;horizontal=1;startSize=30;horizontalStack=0;resizeParent=1;resizeParentMax=0;resizeLast=0;collapsible=1;marginBottom=0;whiteSpace=wrap;html=1;" vertex="1" parent="WIyWlLk6GJQsqaUBKTNV-1">
          <mxGeometry x="350" y="481" width="68" height="30" as="geometry" />
        </mxCell>
        <mxCell id="evVA_SM7a0cTugfseml1-123" style="edgeStyle=orthogonalEdgeStyle;rounded=0;orthogonalLoop=1;jettySize=auto;html=1;exitX=1;exitY=0.5;exitDx=0;exitDy=0;entryX=0;entryY=0.5;entryDx=0;entryDy=0;fontSize=12;startSize=8;endSize=8;" edge="1" parent="WIyWlLk6GJQsqaUBKTNV-1" source="evVA_SM7a0cTugfseml1-98" target="evVA_SM7a0cTugfseml1-101">
          <mxGeometry relative="1" as="geometry" />
        </mxCell>
        <mxCell id="evVA_SM7a0cTugfseml1-124" style="edgeStyle=orthogonalEdgeStyle;rounded=0;orthogonalLoop=1;jettySize=auto;html=1;exitX=1;exitY=0.5;exitDx=0;exitDy=0;entryX=0;entryY=0.5;entryDx=0;entryDy=0;fontSize=12;startSize=8;endSize=8;" edge="1" parent="WIyWlLk6GJQsqaUBKTNV-1" source="evVA_SM7a0cTugfseml1-98" target="evVA_SM7a0cTugfseml1-102">
          <mxGeometry relative="1" as="geometry" />
        </mxCell>
        <mxCell id="evVA_SM7a0cTugfseml1-125" style="edgeStyle=orthogonalEdgeStyle;rounded=0;orthogonalLoop=1;jettySize=auto;html=1;exitX=1;exitY=0.5;exitDx=0;exitDy=0;entryX=0;entryY=0.5;entryDx=0;entryDy=0;fontSize=12;startSize=8;endSize=8;" edge="1" parent="WIyWlLk6GJQsqaUBKTNV-1" source="evVA_SM7a0cTugfseml1-98" target="evVA_SM7a0cTugfseml1-103">
          <mxGeometry relative="1" as="geometry" />
        </mxCell>
        <mxCell id="evVA_SM7a0cTugfseml1-98" value="ElectrodomÃ©stico" style="swimlane;fontStyle=0;childLayout=stackLayout;horizontal=1;startSize=30;horizontalStack=0;resizeParent=1;resizeParentMax=0;resizeLast=0;collapsible=1;marginBottom=0;whiteSpace=wrap;html=1;" vertex="1" parent="WIyWlLk6GJQsqaUBKTNV-1">
          <mxGeometry x="678" y="1368" width="98" height="30" as="geometry" />
        </mxCell>
        <mxCell id="evVA_SM7a0cTugfseml1-126" style="edgeStyle=orthogonalEdgeStyle;rounded=0;orthogonalLoop=1;jettySize=auto;html=1;exitX=1;exitY=0.5;exitDx=0;exitDy=0;entryX=0;entryY=0.5;entryDx=0;entryDy=0;fontSize=12;startSize=8;endSize=8;" edge="1" parent="WIyWlLk6GJQsqaUBKTNV-1" source="evVA_SM7a0cTugfseml1-101" target="evVA_SM7a0cTugfseml1-109">
          <mxGeometry relative="1" as="geometry" />
        </mxCell>
        <mxCell id="evVA_SM7a0cTugfseml1-127" style="edgeStyle=orthogonalEdgeStyle;rounded=0;orthogonalLoop=1;jettySize=auto;html=1;exitX=1;exitY=0.5;exitDx=0;exitDy=0;entryX=0;entryY=0.5;entryDx=0;entryDy=0;fontSize=12;startSize=8;endSize=8;" edge="1" parent="WIyWlLk6GJQsqaUBKTNV-1" source="evVA_SM7a0cTugfseml1-101" target="evVA_SM7a0cTugfseml1-108">
          <mxGeometry relative="1" as="geometry" />
        </mxCell>
        <mxCell id="evVA_SM7a0cTugfseml1-128" style="edgeStyle=orthogonalEdgeStyle;rounded=0;orthogonalLoop=1;jettySize=auto;html=1;exitX=1;exitY=0.5;exitDx=0;exitDy=0;entryX=0;entryY=0.5;entryDx=0;entryDy=0;fontSize=12;startSize=8;endSize=8;" edge="1" parent="WIyWlLk6GJQsqaUBKTNV-1" source="evVA_SM7a0cTugfseml1-101" target="evVA_SM7a0cTugfseml1-107">
          <mxGeometry relative="1" as="geometry" />
        </mxCell>
        <mxCell id="evVA_SM7a0cTugfseml1-129" style="edgeStyle=orthogonalEdgeStyle;rounded=0;orthogonalLoop=1;jettySize=auto;html=1;exitX=1;exitY=0.5;exitDx=0;exitDy=0;entryX=0;entryY=0.5;entryDx=0;entryDy=0;fontSize=12;startSize=8;endSize=8;" edge="1" parent="WIyWlLk6GJQsqaUBKTNV-1" source="evVA_SM7a0cTugfseml1-101" target="evVA_SM7a0cTugfseml1-106">
          <mxGeometry relative="1" as="geometry" />
        </mxCell>
        <mxCell id="evVA_SM7a0cTugfseml1-130" style="edgeStyle=orthogonalEdgeStyle;rounded=0;orthogonalLoop=1;jettySize=auto;html=1;exitX=1;exitY=0.5;exitDx=0;exitDy=0;entryX=0;entryY=0.5;entryDx=0;entryDy=0;fontSize=12;startSize=8;endSize=8;" edge="1" parent="WIyWlLk6GJQsqaUBKTNV-1" source="evVA_SM7a0cTugfseml1-101" target="evVA_SM7a0cTugfseml1-105">
          <mxGeometry relative="1" as="geometry" />
        </mxCell>
        <mxCell id="evVA_SM7a0cTugfseml1-131" style="edgeStyle=orthogonalEdgeStyle;rounded=0;orthogonalLoop=1;jettySize=auto;html=1;exitX=1;exitY=0.5;exitDx=0;exitDy=0;entryX=0;entryY=0.5;entryDx=0;entryDy=0;fontSize=12;startSize=8;endSize=8;" edge="1" parent="WIyWlLk6GJQsqaUBKTNV-1" source="evVA_SM7a0cTugfseml1-101" target="evVA_SM7a0cTugfseml1-104">
          <mxGeometry relative="1" as="geometry" />
        </mxCell>
        <mxCell id="evVA_SM7a0cTugfseml1-101" value="Cocinas" style="swimlane;fontStyle=0;childLayout=stackLayout;horizontal=1;startSize=30;horizontalStack=0;resizeParent=1;resizeParentMax=0;resizeLast=0;collapsible=1;marginBottom=0;whiteSpace=wrap;html=1;" vertex="1" parent="WIyWlLk6GJQsqaUBKTNV-1">
          <mxGeometry x="827" y="1063" width="68" height="30" as="geometry">
            <mxRectangle x="667" y="423" width="78" height="30" as="alternateBounds" />
          </mxGeometry>
        </mxCell>
        <mxCell id="evVA_SM7a0cTugfseml1-132" style="edgeStyle=orthogonalEdgeStyle;rounded=0;orthogonalLoop=1;jettySize=auto;html=1;exitX=1;exitY=0.5;exitDx=0;exitDy=0;entryX=0;entryY=0.5;entryDx=0;entryDy=0;fontSize=12;startSize=8;endSize=8;" edge="1" parent="WIyWlLk6GJQsqaUBKTNV-1" source="evVA_SM7a0cTugfseml1-102" target="evVA_SM7a0cTugfseml1-114">
          <mxGeometry relative="1" as="geometry">
            <Array as="points">
              <mxPoint x="928" y="1383" />
              <mxPoint x="928" y="1436" />
              <mxPoint x="929" y="1436" />
              <mxPoint x="929" y="1487" />
            </Array>
          </mxGeometry>
        </mxCell>
        <mxCell id="evVA_SM7a0cTugfseml1-133" style="edgeStyle=orthogonalEdgeStyle;rounded=0;orthogonalLoop=1;jettySize=auto;html=1;exitX=1;exitY=0.5;exitDx=0;exitDy=0;entryX=0;entryY=0.5;entryDx=0;entryDy=0;fontSize=12;startSize=8;endSize=8;" edge="1" parent="WIyWlLk6GJQsqaUBKTNV-1" source="evVA_SM7a0cTugfseml1-102" target="evVA_SM7a0cTugfseml1-113">
          <mxGeometry relative="1" as="geometry">
            <Array as="points">
              <mxPoint x="928" y="1383" />
              <mxPoint x="928" y="1436" />
            </Array>
          </mxGeometry>
        </mxCell>
        <mxCell id="evVA_SM7a0cTugfseml1-134" style="edgeStyle=orthogonalEdgeStyle;rounded=0;orthogonalLoop=1;jettySize=auto;html=1;exitX=1;exitY=0.5;exitDx=0;exitDy=0;entryX=0;entryY=0.5;entryDx=0;entryDy=0;fontSize=12;startSize=8;endSize=8;" edge="1" parent="WIyWlLk6GJQsqaUBKTNV-1" source="evVA_SM7a0cTugfseml1-102" target="evVA_SM7a0cTugfseml1-112">
          <mxGeometry relative="1" as="geometry" />
        </mxCell>
        <mxCell id="evVA_SM7a0cTugfseml1-135" style="edgeStyle=orthogonalEdgeStyle;rounded=0;orthogonalLoop=1;jettySize=auto;html=1;exitX=1;exitY=0.5;exitDx=0;exitDy=0;entryX=0;entryY=0.5;entryDx=0;entryDy=0;fontSize=12;startSize=8;endSize=8;" edge="1" parent="WIyWlLk6GJQsqaUBKTNV-1" source="evVA_SM7a0cTugfseml1-102" target="evVA_SM7a0cTugfseml1-111">
          <mxGeometry relative="1" as="geometry">
            <Array as="points">
              <mxPoint x="928" y="1383" />
              <mxPoint x="928" y="1330" />
            </Array>
          </mxGeometry>
        </mxCell>
        <mxCell id="evVA_SM7a0cTugfseml1-136" style="edgeStyle=orthogonalEdgeStyle;rounded=0;orthogonalLoop=1;jettySize=auto;html=1;exitX=1;exitY=0.5;exitDx=0;exitDy=0;entryX=0;entryY=0.5;entryDx=0;entryDy=0;fontSize=12;startSize=8;endSize=8;" edge="1" parent="WIyWlLk6GJQsqaUBKTNV-1" source="evVA_SM7a0cTugfseml1-102" target="evVA_SM7a0cTugfseml1-110">
          <mxGeometry relative="1" as="geometry">
            <Array as="points">
              <mxPoint x="928" y="1383" />
              <mxPoint x="928" y="1277" />
            </Array>
          </mxGeometry>
        </mxCell>
        <mxCell id="evVA_SM7a0cTugfseml1-102" value="ElectrÃ³nica y climatizaciÃ³n" style="swimlane;fontStyle=0;childLayout=stackLayout;horizontal=1;startSize=30;horizontalStack=0;resizeParent=1;resizeParentMax=0;resizeLast=0;collapsible=1;marginBottom=0;whiteSpace=wrap;html=1;" vertex="1" parent="WIyWlLk6GJQsqaUBKTNV-1">
          <mxGeometry x="827" y="1368" width="90" height="30" as="geometry">
            <mxRectangle x="667" y="423" width="78" height="30" as="alternateBounds" />
          </mxGeometry>
        </mxCell>
        <mxCell id="evVA_SM7a0cTugfseml1-137" style="edgeStyle=orthogonalEdgeStyle;rounded=0;orthogonalLoop=1;jettySize=auto;html=1;exitX=1;exitY=0.5;exitDx=0;exitDy=0;entryX=0;entryY=0.5;entryDx=0;entryDy=0;fontSize=12;startSize=8;endSize=8;" edge="1" parent="WIyWlLk6GJQsqaUBKTNV-1" source="evVA_SM7a0cTugfseml1-103" target="evVA_SM7a0cTugfseml1-115">
          <mxGeometry relative="1" as="geometry">
            <Array as="points">
              <mxPoint x="936" y="1680" />
              <mxPoint x="936" y="1550" />
            </Array>
          </mxGeometry>
        </mxCell>
        <mxCell id="evVA_SM7a0cTugfseml1-138" style="edgeStyle=orthogonalEdgeStyle;rounded=0;orthogonalLoop=1;jettySize=auto;html=1;exitX=1;exitY=0.5;exitDx=0;exitDy=0;entryX=0;entryY=0.5;entryDx=0;entryDy=0;fontSize=12;startSize=8;endSize=8;" edge="1" parent="WIyWlLk6GJQsqaUBKTNV-1" source="evVA_SM7a0cTugfseml1-103" target="evVA_SM7a0cTugfseml1-116">
          <mxGeometry relative="1" as="geometry">
            <Array as="points">
              <mxPoint x="936" y="1680" />
              <mxPoint x="936" y="1604" />
            </Array>
          </mxGeometry>
        </mxCell>
        <mxCell id="evVA_SM7a0cTugfseml1-139" style="edgeStyle=orthogonalEdgeStyle;rounded=0;orthogonalLoop=1;jettySize=auto;html=1;exitX=1;exitY=0.5;exitDx=0;exitDy=0;entryX=0;entryY=0.5;entryDx=0;entryDy=0;fontSize=12;startSize=8;endSize=8;" edge="1" parent="WIyWlLk6GJQsqaUBKTNV-1" source="evVA_SM7a0cTugfseml1-103" target="evVA_SM7a0cTugfseml1-117">
          <mxGeometry relative="1" as="geometry">
            <Array as="points">
              <mxPoint x="936" y="1680" />
              <mxPoint x="936" y="1657" />
            </Array>
          </mxGeometry>
        </mxCell>
        <mxCell id="evVA_SM7a0cTugfseml1-140" style="edgeStyle=orthogonalEdgeStyle;rounded=0;orthogonalLoop=1;jettySize=auto;html=1;exitX=1;exitY=0.5;exitDx=0;exitDy=0;entryX=0;entryY=0.5;entryDx=0;entryDy=0;fontSize=12;startSize=8;endSize=8;" edge="1" parent="WIyWlLk6GJQsqaUBKTNV-1" source="evVA_SM7a0cTugfseml1-103" target="evVA_SM7a0cTugfseml1-118">
          <mxGeometry relative="1" as="geometry">
            <Array as="points">
              <mxPoint x="936" y="1680" />
              <mxPoint x="936" y="1710" />
            </Array>
          </mxGeometry>
        </mxCell>
        <mxCell id="evVA_SM7a0cTugfseml1-141" style="edgeStyle=orthogonalEdgeStyle;rounded=0;orthogonalLoop=1;jettySize=auto;html=1;exitX=1;exitY=0.5;exitDx=0;exitDy=0;entryX=0;entryY=0.5;entryDx=0;entryDy=0;fontSize=12;startSize=8;endSize=8;" edge="1" parent="WIyWlLk6GJQsqaUBKTNV-1" source="evVA_SM7a0cTugfseml1-103" target="evVA_SM7a0cTugfseml1-121">
          <mxGeometry relative="1" as="geometry">
            <Array as="points">
              <mxPoint x="936" y="1680" />
              <mxPoint x="936" y="1876" />
            </Array>
          </mxGeometry>
        </mxCell>
        <mxCell id="evVA_SM7a0cTugfseml1-142" style="edgeStyle=orthogonalEdgeStyle;rounded=0;orthogonalLoop=1;jettySize=auto;html=1;exitX=1;exitY=0.5;exitDx=0;exitDy=0;entryX=0;entryY=0.5;entryDx=0;entryDy=0;fontSize=12;startSize=8;endSize=8;" edge="1" parent="WIyWlLk6GJQsqaUBKTNV-1" source="evVA_SM7a0cTugfseml1-103" target="evVA_SM7a0cTugfseml1-120">
          <mxGeometry relative="1" as="geometry">
            <Array as="points">
              <mxPoint x="936" y="1680" />
              <mxPoint x="936" y="1816" />
            </Array>
          </mxGeometry>
        </mxCell>
        <mxCell id="evVA_SM7a0cTugfseml1-143" style="edgeStyle=orthogonalEdgeStyle;rounded=0;orthogonalLoop=1;jettySize=auto;html=1;exitX=1;exitY=0.5;exitDx=0;exitDy=0;entryX=0;entryY=0.5;entryDx=0;entryDy=0;fontSize=12;startSize=8;endSize=8;" edge="1" parent="WIyWlLk6GJQsqaUBKTNV-1" source="evVA_SM7a0cTugfseml1-103" target="evVA_SM7a0cTugfseml1-119">
          <mxGeometry relative="1" as="geometry">
            <Array as="points">
              <mxPoint x="936" y="1680" />
              <mxPoint x="936" y="1763" />
            </Array>
          </mxGeometry>
        </mxCell>
        <mxCell id="evVA_SM7a0cTugfseml1-103" value="PequeÃ±os electrÃ³nicos" style="swimlane;fontStyle=0;childLayout=stackLayout;horizontal=1;startSize=30;horizontalStack=0;resizeParent=1;resizeParentMax=0;resizeLast=0;collapsible=1;marginBottom=0;whiteSpace=wrap;html=1;" vertex="1" parent="WIyWlLk6GJQsqaUBKTNV-1">
          <mxGeometry x="827" y="1665" width="90" height="30" as="geometry">
            <mxRectangle x="667" y="423" width="78" height="30" as="alternateBounds" />
          </mxGeometry>
        </mxCell>
        <mxCell id="evVA_SM7a0cTugfseml1-175" style="edgeStyle=orthogonalEdgeStyle;rounded=0;orthogonalLoop=1;jettySize=auto;html=1;exitX=1;exitY=0.5;exitDx=0;exitDy=0;entryX=0;entryY=0.5;entryDx=0;entryDy=0;fontSize=12;startSize=8;endSize=8;" edge="1" parent="WIyWlLk6GJQsqaUBKTNV-1" source="evVA_SM7a0cTugfseml1-104" target="evVA_SM7a0cTugfseml1-155">
          <mxGeometry relative="1" as="geometry" />
        </mxCell>
        <mxCell id="evVA_SM7a0cTugfseml1-104" value="Microondas" style="swimlane;fontStyle=0;childLayout=stackLayout;horizontal=1;startSize=30;horizontalStack=0;resizeParent=1;resizeParentMax=0;resizeLast=0;collapsible=1;marginBottom=0;whiteSpace=wrap;html=1;" vertex="1" parent="WIyWlLk6GJQsqaUBKTNV-1">
          <mxGeometry x="948" y="930" width="68" height="30" as="geometry">
            <mxRectangle x="667" y="423" width="78" height="30" as="alternateBounds" />
          </mxGeometry>
        </mxCell>
        <mxCell id="evVA_SM7a0cTugfseml1-174" style="edgeStyle=orthogonalEdgeStyle;rounded=0;orthogonalLoop=1;jettySize=auto;html=1;exitX=1;exitY=0.5;exitDx=0;exitDy=0;entryX=0;entryY=0.5;entryDx=0;entryDy=0;fontSize=12;startSize=8;endSize=8;" edge="1" parent="WIyWlLk6GJQsqaUBKTNV-1" source="evVA_SM7a0cTugfseml1-105" target="evVA_SM7a0cTugfseml1-155">
          <mxGeometry relative="1" as="geometry" />
        </mxCell>
        <mxCell id="evVA_SM7a0cTugfseml1-105" value="Hornos" style="swimlane;fontStyle=0;childLayout=stackLayout;horizontal=1;startSize=30;horizontalStack=0;resizeParent=1;resizeParentMax=0;resizeLast=0;collapsible=1;marginBottom=0;whiteSpace=wrap;html=1;" vertex="1" parent="WIyWlLk6GJQsqaUBKTNV-1">
          <mxGeometry x="948" y="984" width="68" height="30" as="geometry">
            <mxRectangle x="667" y="423" width="78" height="30" as="alternateBounds" />
          </mxGeometry>
        </mxCell>
        <mxCell id="evVA_SM7a0cTugfseml1-173" style="edgeStyle=orthogonalEdgeStyle;rounded=0;orthogonalLoop=1;jettySize=auto;html=1;exitX=1;exitY=0.5;exitDx=0;exitDy=0;entryX=0;entryY=0.5;entryDx=0;entryDy=0;fontSize=12;startSize=8;endSize=8;" edge="1" parent="WIyWlLk6GJQsqaUBKTNV-1" source="evVA_SM7a0cTugfseml1-106" target="evVA_SM7a0cTugfseml1-155">
          <mxGeometry relative="1" as="geometry">
            <Array as="points">
              <mxPoint x="1269" y="1052" />
              <mxPoint x="1269" y="859" />
            </Array>
          </mxGeometry>
        </mxCell>
        <mxCell id="evVA_SM7a0cTugfseml1-106" value="VitrocerÃ¡micas" style="swimlane;fontStyle=0;childLayout=stackLayout;horizontal=1;startSize=30;horizontalStack=0;resizeParent=1;resizeParentMax=0;resizeLast=0;collapsible=1;marginBottom=0;whiteSpace=wrap;html=1;" vertex="1" parent="WIyWlLk6GJQsqaUBKTNV-1">
          <mxGeometry x="948" y="1037" width="92" height="30" as="geometry">
            <mxRectangle x="667" y="423" width="78" height="30" as="alternateBounds" />
          </mxGeometry>
        </mxCell>
        <mxCell id="evVA_SM7a0cTugfseml1-172" style="edgeStyle=orthogonalEdgeStyle;rounded=0;orthogonalLoop=1;jettySize=auto;html=1;exitX=1;exitY=0.5;exitDx=0;exitDy=0;entryX=0;entryY=0.5;entryDx=0;entryDy=0;fontSize=12;startSize=8;endSize=8;" edge="1" parent="WIyWlLk6GJQsqaUBKTNV-1" source="evVA_SM7a0cTugfseml1-107" target="evVA_SM7a0cTugfseml1-155">
          <mxGeometry relative="1" as="geometry" />
        </mxCell>
        <mxCell id="evVA_SM7a0cTugfseml1-107" value="Campanas" style="swimlane;fontStyle=0;childLayout=stackLayout;horizontal=1;startSize=30;horizontalStack=0;resizeParent=1;resizeParentMax=0;resizeLast=0;collapsible=1;marginBottom=0;whiteSpace=wrap;html=1;" vertex="1" parent="WIyWlLk6GJQsqaUBKTNV-1">
          <mxGeometry x="948" y="1090" width="68" height="30" as="geometry">
            <mxRectangle x="667" y="423" width="78" height="30" as="alternateBounds" />
          </mxGeometry>
        </mxCell>
        <mxCell id="evVA_SM7a0cTugfseml1-171" style="edgeStyle=orthogonalEdgeStyle;rounded=0;orthogonalLoop=1;jettySize=auto;html=1;exitX=1;exitY=0.5;exitDx=0;exitDy=0;entryX=0;entryY=0.5;entryDx=0;entryDy=0;fontSize=12;startSize=8;endSize=8;" edge="1" parent="WIyWlLk6GJQsqaUBKTNV-1" source="evVA_SM7a0cTugfseml1-108" target="evVA_SM7a0cTugfseml1-155">
          <mxGeometry relative="1" as="geometry" />
        </mxCell>
        <mxCell id="evVA_SM7a0cTugfseml1-108" value="FrigorÃ­ficos" style="swimlane;fontStyle=0;childLayout=stackLayout;horizontal=1;startSize=30;horizontalStack=0;resizeParent=1;resizeParentMax=0;resizeLast=0;collapsible=1;marginBottom=0;whiteSpace=wrap;html=1;" vertex="1" parent="WIyWlLk6GJQsqaUBKTNV-1">
          <mxGeometry x="948" y="1143" width="68" height="30" as="geometry">
            <mxRectangle x="667" y="423" width="78" height="30" as="alternateBounds" />
          </mxGeometry>
        </mxCell>
        <mxCell id="evVA_SM7a0cTugfseml1-170" style="edgeStyle=orthogonalEdgeStyle;rounded=0;orthogonalLoop=1;jettySize=auto;html=1;exitX=1;exitY=0.5;exitDx=0;exitDy=0;entryX=0;entryY=0.5;entryDx=0;entryDy=0;fontSize=12;startSize=8;endSize=8;" edge="1" parent="WIyWlLk6GJQsqaUBKTNV-1" source="evVA_SM7a0cTugfseml1-109" target="evVA_SM7a0cTugfseml1-155">
          <mxGeometry relative="1" as="geometry" />
        </mxCell>
        <mxCell id="evVA_SM7a0cTugfseml1-109" value="Fregaderos / Grifos" style="swimlane;fontStyle=0;childLayout=stackLayout;horizontal=1;startSize=30;horizontalStack=0;resizeParent=1;resizeParentMax=0;resizeLast=0;collapsible=1;marginBottom=0;whiteSpace=wrap;html=1;" vertex="1" parent="WIyWlLk6GJQsqaUBKTNV-1">
          <mxGeometry x="948" y="1196" width="68" height="30" as="geometry">
            <mxRectangle x="667" y="423" width="78" height="30" as="alternateBounds" />
          </mxGeometry>
        </mxCell>
        <mxCell id="evVA_SM7a0cTugfseml1-169" style="edgeStyle=orthogonalEdgeStyle;rounded=0;orthogonalLoop=1;jettySize=auto;html=1;exitX=1;exitY=0.5;exitDx=0;exitDy=0;entryX=0;entryY=0.5;entryDx=0;entryDy=0;fontSize=12;startSize=8;endSize=8;" edge="1" parent="WIyWlLk6GJQsqaUBKTNV-1" source="evVA_SM7a0cTugfseml1-110" target="evVA_SM7a0cTugfseml1-155">
          <mxGeometry relative="1" as="geometry" />
        </mxCell>
        <mxCell id="evVA_SM7a0cTugfseml1-110" value="Pantallas" style="swimlane;fontStyle=0;childLayout=stackLayout;horizontal=1;startSize=30;horizontalStack=0;resizeParent=1;resizeParentMax=0;resizeLast=0;collapsible=1;marginBottom=0;whiteSpace=wrap;html=1;" vertex="1" parent="WIyWlLk6GJQsqaUBKTNV-1">
          <mxGeometry x="948" y="1262" width="68" height="30" as="geometry">
            <mxRectangle x="667" y="423" width="78" height="30" as="alternateBounds" />
          </mxGeometry>
        </mxCell>
        <mxCell id="evVA_SM7a0cTugfseml1-168" style="edgeStyle=orthogonalEdgeStyle;rounded=0;orthogonalLoop=1;jettySize=auto;html=1;exitX=1;exitY=0.5;exitDx=0;exitDy=0;entryX=0;entryY=0.5;entryDx=0;entryDy=0;fontSize=12;startSize=8;endSize=8;" edge="1" parent="WIyWlLk6GJQsqaUBKTNV-1" source="evVA_SM7a0cTugfseml1-111" target="evVA_SM7a0cTugfseml1-155">
          <mxGeometry relative="1" as="geometry">
            <Array as="points">
              <mxPoint x="1269" y="1330" />
              <mxPoint x="1269" y="859" />
            </Array>
          </mxGeometry>
        </mxCell>
        <mxCell id="evVA_SM7a0cTugfseml1-111" value="Ordenadores" style="swimlane;fontStyle=0;childLayout=stackLayout;horizontal=1;startSize=30;horizontalStack=0;resizeParent=1;resizeParentMax=0;resizeLast=0;collapsible=1;marginBottom=0;whiteSpace=wrap;html=1;" vertex="1" parent="WIyWlLk6GJQsqaUBKTNV-1">
          <mxGeometry x="948" y="1315" width="92" height="30" as="geometry">
            <mxRectangle x="667" y="423" width="78" height="30" as="alternateBounds" />
          </mxGeometry>
        </mxCell>
        <mxCell id="evVA_SM7a0cTugfseml1-167" style="edgeStyle=orthogonalEdgeStyle;rounded=0;orthogonalLoop=1;jettySize=auto;html=1;exitX=1;exitY=0.5;exitDx=0;exitDy=0;entryX=0;entryY=0.5;entryDx=0;entryDy=0;fontSize=12;startSize=8;endSize=8;" edge="1" parent="WIyWlLk6GJQsqaUBKTNV-1" source="evVA_SM7a0cTugfseml1-112" target="evVA_SM7a0cTugfseml1-155">
          <mxGeometry relative="1" as="geometry">
            <Array as="points">
              <mxPoint x="1269" y="1383" />
              <mxPoint x="1269" y="859" />
            </Array>
          </mxGeometry>
        </mxCell>
        <mxCell id="evVA_SM7a0cTugfseml1-112" value="Reproductores de mÃºsica" style="swimlane;fontStyle=0;childLayout=stackLayout;horizontal=1;startSize=30;horizontalStack=0;resizeParent=1;resizeParentMax=0;resizeLast=0;collapsible=1;marginBottom=0;whiteSpace=wrap;html=1;" vertex="1" parent="WIyWlLk6GJQsqaUBKTNV-1">
          <mxGeometry x="948" y="1368" width="107" height="30" as="geometry">
            <mxRectangle x="667" y="423" width="78" height="30" as="alternateBounds" />
          </mxGeometry>
        </mxCell>
        <mxCell id="evVA_SM7a0cTugfseml1-166" style="edgeStyle=orthogonalEdgeStyle;rounded=0;orthogonalLoop=1;jettySize=auto;html=1;exitX=1;exitY=0.5;exitDx=0;exitDy=0;entryX=0;entryY=0.5;entryDx=0;entryDy=0;fontSize=12;startSize=8;endSize=8;" edge="1" parent="WIyWlLk6GJQsqaUBKTNV-1" source="evVA_SM7a0cTugfseml1-113" target="evVA_SM7a0cTugfseml1-155">
          <mxGeometry relative="1" as="geometry">
            <Array as="points">
              <mxPoint x="1269" y="1436" />
              <mxPoint x="1269" y="859" />
            </Array>
          </mxGeometry>
        </mxCell>
        <mxCell id="evVA_SM7a0cTugfseml1-113" value="Aires acondicionados" style="swimlane;fontStyle=0;childLayout=stackLayout;horizontal=1;startSize=30;horizontalStack=0;resizeParent=1;resizeParentMax=0;resizeLast=0;collapsible=1;marginBottom=0;whiteSpace=wrap;html=1;" vertex="1" parent="WIyWlLk6GJQsqaUBKTNV-1">
          <mxGeometry x="948" y="1421" width="119" height="30" as="geometry">
            <mxRectangle x="667" y="423" width="78" height="30" as="alternateBounds" />
          </mxGeometry>
        </mxCell>
        <mxCell id="evVA_SM7a0cTugfseml1-165" style="edgeStyle=orthogonalEdgeStyle;rounded=0;orthogonalLoop=1;jettySize=auto;html=1;exitX=1;exitY=0.5;exitDx=0;exitDy=0;entryX=0;entryY=0.5;entryDx=0;entryDy=0;fontSize=12;startSize=8;endSize=8;" edge="1" parent="WIyWlLk6GJQsqaUBKTNV-1" source="evVA_SM7a0cTugfseml1-114" target="evVA_SM7a0cTugfseml1-155">
          <mxGeometry relative="1" as="geometry">
            <Array as="points">
              <mxPoint x="1269" y="1488" />
              <mxPoint x="1269" y="859" />
            </Array>
          </mxGeometry>
        </mxCell>
        <mxCell id="evVA_SM7a0cTugfseml1-114" value="Calefactores / ventiladores" style="swimlane;fontStyle=0;childLayout=stackLayout;horizontal=1;startSize=30;horizontalStack=0;resizeParent=1;resizeParentMax=0;resizeLast=0;collapsible=1;marginBottom=0;whiteSpace=wrap;html=1;" vertex="1" parent="WIyWlLk6GJQsqaUBKTNV-1">
          <mxGeometry x="949.5" y="1474" width="116" height="27" as="geometry">
            <mxRectangle x="667" y="423" width="78" height="30" as="alternateBounds" />
          </mxGeometry>
        </mxCell>
        <mxCell id="evVA_SM7a0cTugfseml1-164" style="edgeStyle=orthogonalEdgeStyle;rounded=0;orthogonalLoop=1;jettySize=auto;html=1;exitX=1;exitY=0.5;exitDx=0;exitDy=0;entryX=0;entryY=0.5;entryDx=0;entryDy=0;fontSize=12;startSize=8;endSize=8;" edge="1" parent="WIyWlLk6GJQsqaUBKTNV-1" source="evVA_SM7a0cTugfseml1-115" target="evVA_SM7a0cTugfseml1-155">
          <mxGeometry relative="1" as="geometry">
            <Array as="points">
              <mxPoint x="1269" y="1550" />
              <mxPoint x="1269" y="859" />
            </Array>
          </mxGeometry>
        </mxCell>
        <mxCell id="evVA_SM7a0cTugfseml1-115" value="Planchas" style="swimlane;fontStyle=0;childLayout=stackLayout;horizontal=1;startSize=30;horizontalStack=0;resizeParent=1;resizeParentMax=0;resizeLast=0;collapsible=1;marginBottom=0;whiteSpace=wrap;html=1;" vertex="1" parent="WIyWlLk6GJQsqaUBKTNV-1">
          <mxGeometry x="955.5" y="1535" width="68" height="30" as="geometry">
            <mxRectangle x="667" y="423" width="78" height="30" as="alternateBounds" />
          </mxGeometry>
        </mxCell>
        <mxCell id="evVA_SM7a0cTugfseml1-163" style="edgeStyle=orthogonalEdgeStyle;rounded=0;orthogonalLoop=1;jettySize=auto;html=1;exitX=1;exitY=0.5;exitDx=0;exitDy=0;entryX=0;entryY=0.5;entryDx=0;entryDy=0;fontSize=12;startSize=8;endSize=8;" edge="1" parent="WIyWlLk6GJQsqaUBKTNV-1" source="evVA_SM7a0cTugfseml1-116" target="evVA_SM7a0cTugfseml1-155">
          <mxGeometry relative="1" as="geometry">
            <Array as="points">
              <mxPoint x="1269" y="1604" />
              <mxPoint x="1269" y="859" />
            </Array>
          </mxGeometry>
        </mxCell>
        <mxCell id="evVA_SM7a0cTugfseml1-116" value="Secadoras" style="swimlane;fontStyle=0;childLayout=stackLayout;horizontal=1;startSize=30;horizontalStack=0;resizeParent=1;resizeParentMax=0;resizeLast=0;collapsible=1;marginBottom=0;whiteSpace=wrap;html=1;" vertex="1" parent="WIyWlLk6GJQsqaUBKTNV-1">
          <mxGeometry x="955.5" y="1589" width="68" height="30" as="geometry">
            <mxRectangle x="667" y="423" width="78" height="30" as="alternateBounds" />
          </mxGeometry>
        </mxCell>
        <mxCell id="evVA_SM7a0cTugfseml1-162" style="edgeStyle=orthogonalEdgeStyle;rounded=0;orthogonalLoop=1;jettySize=auto;html=1;exitX=1;exitY=0.5;exitDx=0;exitDy=0;entryX=0;entryY=0.5;entryDx=0;entryDy=0;fontSize=12;startSize=8;endSize=8;" edge="1" parent="WIyWlLk6GJQsqaUBKTNV-1" source="evVA_SM7a0cTugfseml1-117" target="evVA_SM7a0cTugfseml1-155">
          <mxGeometry relative="1" as="geometry">
            <Array as="points">
              <mxPoint x="1269" y="1657" />
              <mxPoint x="1269" y="859" />
            </Array>
          </mxGeometry>
        </mxCell>
        <mxCell id="evVA_SM7a0cTugfseml1-117" value="Tostadoras" style="swimlane;fontStyle=0;childLayout=stackLayout;horizontal=1;startSize=30;horizontalStack=0;resizeParent=1;resizeParentMax=0;resizeLast=0;collapsible=1;marginBottom=0;whiteSpace=wrap;html=1;" vertex="1" parent="WIyWlLk6GJQsqaUBKTNV-1">
          <mxGeometry x="955.5" y="1642" width="68.5" height="30" as="geometry">
            <mxRectangle x="667" y="423" width="78" height="30" as="alternateBounds" />
          </mxGeometry>
        </mxCell>
        <mxCell id="evVA_SM7a0cTugfseml1-161" style="edgeStyle=orthogonalEdgeStyle;rounded=0;orthogonalLoop=1;jettySize=auto;html=1;exitX=1;exitY=0.5;exitDx=0;exitDy=0;entryX=0;entryY=0.5;entryDx=0;entryDy=0;fontSize=12;startSize=8;endSize=8;" edge="1" parent="WIyWlLk6GJQsqaUBKTNV-1" source="evVA_SM7a0cTugfseml1-118" target="evVA_SM7a0cTugfseml1-155">
          <mxGeometry relative="1" as="geometry">
            <Array as="points">
              <mxPoint x="1269" y="1710" />
              <mxPoint x="1269" y="859" />
            </Array>
          </mxGeometry>
        </mxCell>
        <mxCell id="evVA_SM7a0cTugfseml1-118" value="Cafeteras" style="swimlane;fontStyle=0;childLayout=stackLayout;horizontal=1;startSize=30;horizontalStack=0;resizeParent=1;resizeParentMax=0;resizeLast=0;collapsible=1;marginBottom=0;whiteSpace=wrap;html=1;" vertex="1" parent="WIyWlLk6GJQsqaUBKTNV-1">
          <mxGeometry x="955.5" y="1695" width="68" height="30" as="geometry">
            <mxRectangle x="667" y="423" width="78" height="30" as="alternateBounds" />
          </mxGeometry>
        </mxCell>
        <mxCell id="evVA_SM7a0cTugfseml1-160" style="edgeStyle=orthogonalEdgeStyle;rounded=0;orthogonalLoop=1;jettySize=auto;html=1;exitX=1;exitY=0.5;exitDx=0;exitDy=0;entryX=0;entryY=0.5;entryDx=0;entryDy=0;fontSize=12;startSize=8;endSize=8;" edge="1" parent="WIyWlLk6GJQsqaUBKTNV-1" source="evVA_SM7a0cTugfseml1-119" target="evVA_SM7a0cTugfseml1-155">
          <mxGeometry relative="1" as="geometry">
            <Array as="points">
              <mxPoint x="1269" y="1763" />
              <mxPoint x="1269" y="859" />
            </Array>
          </mxGeometry>
        </mxCell>
        <mxCell id="evVA_SM7a0cTugfseml1-119" value="Robots de cocina" style="swimlane;fontStyle=0;childLayout=stackLayout;horizontal=1;startSize=30;horizontalStack=0;resizeParent=1;resizeParentMax=0;resizeLast=0;collapsible=1;marginBottom=0;whiteSpace=wrap;html=1;" vertex="1" parent="WIyWlLk6GJQsqaUBKTNV-1">
          <mxGeometry x="955.5" y="1748" width="68" height="30" as="geometry">
            <mxRectangle x="667" y="423" width="78" height="30" as="alternateBounds" />
          </mxGeometry>
        </mxCell>
        <mxCell id="evVA_SM7a0cTugfseml1-159" style="edgeStyle=orthogonalEdgeStyle;rounded=0;orthogonalLoop=1;jettySize=auto;html=1;exitX=1;exitY=0.5;exitDx=0;exitDy=0;entryX=0;entryY=0.5;entryDx=0;entryDy=0;fontSize=12;startSize=8;endSize=8;" edge="1" parent="WIyWlLk6GJQsqaUBKTNV-1" source="evVA_SM7a0cTugfseml1-120" target="evVA_SM7a0cTugfseml1-155">
          <mxGeometry relative="1" as="geometry">
            <Array as="points">
              <mxPoint x="1269" y="1816" />
              <mxPoint x="1269" y="859" />
            </Array>
          </mxGeometry>
        </mxCell>
        <mxCell id="evVA_SM7a0cTugfseml1-120" value="Aspiradoras" style="swimlane;fontStyle=0;childLayout=stackLayout;horizontal=1;startSize=30;horizontalStack=0;resizeParent=1;resizeParentMax=0;resizeLast=0;collapsible=1;marginBottom=0;whiteSpace=wrap;html=1;" vertex="1" parent="WIyWlLk6GJQsqaUBKTNV-1">
          <mxGeometry x="955.5" y="1801" width="68" height="30" as="geometry">
            <mxRectangle x="667" y="423" width="78" height="30" as="alternateBounds" />
          </mxGeometry>
        </mxCell>
        <mxCell id="evVA_SM7a0cTugfseml1-158" style="edgeStyle=orthogonalEdgeStyle;rounded=0;orthogonalLoop=1;jettySize=auto;html=1;exitX=1;exitY=0.5;exitDx=0;exitDy=0;entryX=0;entryY=0.5;entryDx=0;entryDy=0;fontSize=12;startSize=8;endSize=8;" edge="1" parent="WIyWlLk6GJQsqaUBKTNV-1" source="evVA_SM7a0cTugfseml1-121" target="evVA_SM7a0cTugfseml1-155">
          <mxGeometry relative="1" as="geometry">
            <Array as="points">
              <mxPoint x="1269" y="1876" />
              <mxPoint x="1269" y="859" />
            </Array>
          </mxGeometry>
        </mxCell>
        <mxCell id="evVA_SM7a0cTugfseml1-121" value="Menaje de cocina" style="swimlane;fontStyle=0;childLayout=stackLayout;horizontal=1;startSize=30;horizontalStack=0;resizeParent=1;resizeParentMax=0;resizeLast=0;collapsible=1;marginBottom=0;whiteSpace=wrap;html=1;" vertex="1" parent="WIyWlLk6GJQsqaUBKTNV-1">
          <mxGeometry x="955.5" y="1861" width="68" height="30" as="geometry">
            <mxRectangle x="667" y="423" width="78" height="30" as="alternateBounds" />
          </mxGeometry>
        </mxCell>
        <mxCell id="evVA_SM7a0cTugfseml1-228" style="edgeStyle=orthogonalEdgeStyle;rounded=0;orthogonalLoop=1;jettySize=auto;html=1;exitX=0.5;exitY=1;exitDx=0;exitDy=0;entryX=1;entryY=0.5;entryDx=0;entryDy=0;fontSize=12;startSize=8;endSize=8;" edge="1" parent="WIyWlLk6GJQsqaUBKTNV-1" source="evVA_SM7a0cTugfseml1-155" target="evVA_SM7a0cTugfseml1-225">
          <mxGeometry relative="1" as="geometry" />
        </mxCell>
        <mxCell id="evVA_SM7a0cTugfseml1-155" value="AÃ±adir al carrito" style="swimlane;fontStyle=0;childLayout=stackLayout;horizontal=1;startSize=30;horizontalStack=0;resizeParent=1;resizeParentMax=0;resizeLast=0;collapsible=1;marginBottom=0;whiteSpace=wrap;html=1;" vertex="1" parent="WIyWlLk6GJQsqaUBKTNV-1">
          <mxGeometry x="1521" y="844" width="68" height="30" as="geometry">
            <mxRectangle x="667" y="423" width="78" height="30" as="alternateBounds" />
          </mxGeometry>
        </mxCell>
        <mxCell id="evVA_SM7a0cTugfseml1-199" style="edgeStyle=orthogonalEdgeStyle;rounded=0;orthogonalLoop=1;jettySize=auto;html=1;exitX=1;exitY=0.5;exitDx=0;exitDy=0;entryX=0;entryY=0.5;entryDx=0;entryDy=0;fontSize=12;startSize=8;endSize=8;" edge="1" parent="WIyWlLk6GJQsqaUBKTNV-1" source="evVA_SM7a0cTugfseml1-193" target="evVA_SM7a0cTugfseml1-195">
          <mxGeometry relative="1" as="geometry" />
        </mxCell>
        <mxCell id="evVA_SM7a0cTugfseml1-200" style="edgeStyle=orthogonalEdgeStyle;rounded=0;orthogonalLoop=1;jettySize=auto;html=1;exitX=1;exitY=0.5;exitDx=0;exitDy=0;entryX=0;entryY=0.5;entryDx=0;entryDy=0;fontSize=12;startSize=8;endSize=8;" edge="1" parent="WIyWlLk6GJQsqaUBKTNV-1" source="evVA_SM7a0cTugfseml1-193" target="evVA_SM7a0cTugfseml1-196">
          <mxGeometry relative="1" as="geometry" />
        </mxCell>
        <mxCell id="evVA_SM7a0cTugfseml1-201" style="edgeStyle=orthogonalEdgeStyle;rounded=0;orthogonalLoop=1;jettySize=auto;html=1;exitX=1;exitY=0.5;exitDx=0;exitDy=0;entryX=0;entryY=0.5;entryDx=0;entryDy=0;fontSize=12;startSize=8;endSize=8;" edge="1" parent="WIyWlLk6GJQsqaUBKTNV-1" source="evVA_SM7a0cTugfseml1-193" target="evVA_SM7a0cTugfseml1-197">
          <mxGeometry relative="1" as="geometry" />
        </mxCell>
        <mxCell id="evVA_SM7a0cTugfseml1-202" style="edgeStyle=orthogonalEdgeStyle;rounded=0;orthogonalLoop=1;jettySize=auto;html=1;exitX=1;exitY=0.5;exitDx=0;exitDy=0;entryX=0;entryY=0.5;entryDx=0;entryDy=0;fontSize=12;startSize=8;endSize=8;" edge="1" parent="WIyWlLk6GJQsqaUBKTNV-1" source="evVA_SM7a0cTugfseml1-193" target="evVA_SM7a0cTugfseml1-198">
          <mxGeometry relative="1" as="geometry" />
        </mxCell>
        <mxCell id="evVA_SM7a0cTugfseml1-193" value="Cocina a medida" style="swimlane;fontStyle=0;childLayout=stackLayout;horizontal=1;startSize=30;horizontalStack=0;resizeParent=1;resizeParentMax=0;resizeLast=0;collapsible=1;marginBottom=0;whiteSpace=wrap;html=1;" vertex="1" parent="WIyWlLk6GJQsqaUBKTNV-1">
          <mxGeometry x="678" y="2005" width="98" height="30" as="geometry" />
        </mxCell>
        <mxCell id="evVA_SM7a0cTugfseml1-204" style="edgeStyle=orthogonalEdgeStyle;rounded=0;orthogonalLoop=1;jettySize=auto;html=1;exitX=1;exitY=0.5;exitDx=0;exitDy=0;entryX=0;entryY=0.5;entryDx=0;entryDy=0;fontSize=12;startSize=8;endSize=8;" edge="1" parent="WIyWlLk6GJQsqaUBKTNV-1" source="evVA_SM7a0cTugfseml1-195" target="evVA_SM7a0cTugfseml1-203">
          <mxGeometry relative="1" as="geometry" />
        </mxCell>
        <mxCell id="evVA_SM7a0cTugfseml1-195" value="Encimeras" style="swimlane;fontStyle=0;childLayout=stackLayout;horizontal=1;startSize=30;horizontalStack=0;resizeParent=1;resizeParentMax=0;resizeLast=0;collapsible=1;marginBottom=0;whiteSpace=wrap;html=1;" vertex="1" parent="WIyWlLk6GJQsqaUBKTNV-1">
          <mxGeometry x="838" y="1945" width="68" height="30" as="geometry">
            <mxRectangle x="667" y="423" width="78" height="30" as="alternateBounds" />
          </mxGeometry>
        </mxCell>
        <mxCell id="evVA_SM7a0cTugfseml1-205" style="edgeStyle=orthogonalEdgeStyle;rounded=0;orthogonalLoop=1;jettySize=auto;html=1;exitX=1;exitY=0.5;exitDx=0;exitDy=0;fontSize=12;startSize=8;endSize=8;entryX=0;entryY=0.5;entryDx=0;entryDy=0;" edge="1" parent="WIyWlLk6GJQsqaUBKTNV-1" source="evVA_SM7a0cTugfseml1-196" target="evVA_SM7a0cTugfseml1-203">
          <mxGeometry relative="1" as="geometry">
            <mxPoint x="920.6969696969697" y="2035.3333333333335" as="targetPoint" />
          </mxGeometry>
        </mxCell>
        <mxCell id="evVA_SM7a0cTugfseml1-196" value="Cuerpos de muebles" style="swimlane;fontStyle=0;childLayout=stackLayout;horizontal=1;startSize=30;horizontalStack=0;resizeParent=1;resizeParentMax=0;resizeLast=0;collapsible=1;marginBottom=0;whiteSpace=wrap;html=1;" vertex="1" parent="WIyWlLk6GJQsqaUBKTNV-1">
          <mxGeometry x="838" y="1998" width="68" height="30" as="geometry">
            <mxRectangle x="667" y="423" width="78" height="30" as="alternateBounds" />
          </mxGeometry>
        </mxCell>
        <mxCell id="evVA_SM7a0cTugfseml1-206" style="edgeStyle=orthogonalEdgeStyle;rounded=0;orthogonalLoop=1;jettySize=auto;html=1;exitX=1;exitY=0.5;exitDx=0;exitDy=0;entryX=0;entryY=0.5;entryDx=0;entryDy=0;fontSize=12;startSize=8;endSize=8;" edge="1" parent="WIyWlLk6GJQsqaUBKTNV-1" source="evVA_SM7a0cTugfseml1-197" target="evVA_SM7a0cTugfseml1-203">
          <mxGeometry relative="1" as="geometry" />
        </mxCell>
        <mxCell id="evVA_SM7a0cTugfseml1-197" value="Frentes de muebles" style="swimlane;fontStyle=0;childLayout=stackLayout;horizontal=1;startSize=30;horizontalStack=0;resizeParent=1;resizeParentMax=0;resizeLast=0;collapsible=1;marginBottom=0;whiteSpace=wrap;html=1;" vertex="1" parent="WIyWlLk6GJQsqaUBKTNV-1">
          <mxGeometry x="838" y="2051" width="68" height="30" as="geometry">
            <mxRectangle x="667" y="423" width="78" height="30" as="alternateBounds" />
          </mxGeometry>
        </mxCell>
        <mxCell id="evVA_SM7a0cTugfseml1-207" style="edgeStyle=orthogonalEdgeStyle;rounded=0;orthogonalLoop=1;jettySize=auto;html=1;exitX=1;exitY=0.5;exitDx=0;exitDy=0;entryX=0;entryY=0.5;entryDx=0;entryDy=0;fontSize=12;startSize=8;endSize=8;" edge="1" parent="WIyWlLk6GJQsqaUBKTNV-1" source="evVA_SM7a0cTugfseml1-198" target="evVA_SM7a0cTugfseml1-203">
          <mxGeometry relative="1" as="geometry" />
        </mxCell>
        <mxCell id="evVA_SM7a0cTugfseml1-198" value="Tiradores" style="swimlane;fontStyle=0;childLayout=stackLayout;horizontal=1;startSize=30;horizontalStack=0;resizeParent=1;resizeParentMax=0;resizeLast=0;collapsible=1;marginBottom=0;whiteSpace=wrap;html=1;" vertex="1" parent="WIyWlLk6GJQsqaUBKTNV-1">
          <mxGeometry x="838" y="2111" width="68" height="30" as="geometry">
            <mxRectangle x="667" y="423" width="78" height="30" as="alternateBounds" />
          </mxGeometry>
        </mxCell>
        <mxCell id="evVA_SM7a0cTugfseml1-209" style="edgeStyle=orthogonalEdgeStyle;rounded=0;orthogonalLoop=1;jettySize=auto;html=1;exitX=1;exitY=0.5;exitDx=0;exitDy=0;entryX=0;entryY=0.5;entryDx=0;entryDy=0;fontSize=12;startSize=8;endSize=8;" edge="1" parent="WIyWlLk6GJQsqaUBKTNV-1" source="evVA_SM7a0cTugfseml1-203" target="evVA_SM7a0cTugfseml1-208">
          <mxGeometry relative="1" as="geometry">
            <Array as="points">
              <mxPoint x="1040" y="2036" />
              <mxPoint x="1040" y="2132" />
            </Array>
          </mxGeometry>
        </mxCell>
        <mxCell id="evVA_SM7a0cTugfseml1-203" value="Elegir material" style="swimlane;fontStyle=0;childLayout=stackLayout;horizontal=1;startSize=30;horizontalStack=0;resizeParent=1;resizeParentMax=0;resizeLast=0;collapsible=1;marginBottom=0;whiteSpace=wrap;html=1;" vertex="1" parent="WIyWlLk6GJQsqaUBKTNV-1">
          <mxGeometry x="953" y="2021" width="68" height="30" as="geometry">
            <mxRectangle x="667" y="423" width="78" height="30" as="alternateBounds" />
          </mxGeometry>
        </mxCell>
        <mxCell id="evVA_SM7a0cTugfseml1-208" value="Descargar" style="swimlane;fontStyle=0;childLayout=stackLayout;horizontal=1;startSize=30;horizontalStack=0;resizeParent=1;resizeParentMax=0;resizeLast=0;collapsible=1;marginBottom=0;whiteSpace=wrap;html=1;" vertex="1" parent="WIyWlLk6GJQsqaUBKTNV-1">
          <mxGeometry x="1087" y="2117" width="68" height="30" as="geometry">
            <mxRectangle x="667" y="423" width="78" height="30" as="alternateBounds" />
          </mxGeometry>
        </mxCell>
        <mxCell id="evVA_SM7a0cTugfseml1-213" style="edgeStyle=none;curved=1;rounded=0;orthogonalLoop=1;jettySize=auto;html=1;exitX=1;exitY=0.5;exitDx=0;exitDy=0;entryX=0;entryY=0.5;entryDx=0;entryDy=0;fontSize=12;startSize=8;endSize=8;" edge="1" parent="WIyWlLk6GJQsqaUBKTNV-1" source="evVA_SM7a0cTugfseml1-210" target="evVA_SM7a0cTugfseml1-212">
          <mxGeometry relative="1" as="geometry" />
        </mxCell>
        <mxCell id="evVA_SM7a0cTugfseml1-210" value="Armario a medida" style="swimlane;fontStyle=0;childLayout=stackLayout;horizontal=1;startSize=30;horizontalStack=0;resizeParent=1;resizeParentMax=0;resizeLast=0;collapsible=1;marginBottom=0;whiteSpace=wrap;html=1;" vertex="1" parent="WIyWlLk6GJQsqaUBKTNV-1">
          <mxGeometry x="678" y="2219" width="98" height="30" as="geometry" />
        </mxCell>
        <mxCell id="evVA_SM7a0cTugfseml1-215" style="edgeStyle=orthogonalEdgeStyle;rounded=0;orthogonalLoop=1;jettySize=auto;html=1;exitX=1;exitY=0.5;exitDx=0;exitDy=0;entryX=0;entryY=0.5;entryDx=0;entryDy=0;fontSize=12;startSize=8;endSize=8;" edge="1" parent="WIyWlLk6GJQsqaUBKTNV-1" source="evVA_SM7a0cTugfseml1-212" target="evVA_SM7a0cTugfseml1-208">
          <mxGeometry relative="1" as="geometry" />
        </mxCell>
        <mxCell id="evVA_SM7a0cTugfseml1-212" value="Elegir material" style="swimlane;fontStyle=0;childLayout=stackLayout;horizontal=1;startSize=30;horizontalStack=0;resizeParent=1;resizeParentMax=0;resizeLast=0;collapsible=1;marginBottom=0;whiteSpace=wrap;html=1;" vertex="1" parent="WIyWlLk6GJQsqaUBKTNV-1">
          <mxGeometry x="895" y="2219" width="98" height="30" as="geometry" />
        </mxCell>
        <mxCell id="evVA_SM7a0cTugfseml1-214" value="&lt;font style=&quot;font-size: 10px;&quot;&gt;Seleccionar uno&lt;/font&gt;" style="text;html=1;align=center;verticalAlign=middle;resizable=0;points=[];autosize=1;strokeColor=none;fillColor=none;fontSize=16;" vertex="1" parent="WIyWlLk6GJQsqaUBKTNV-1">
          <mxGeometry x="788" y="2207" width="90" height="31" as="geometry" />
        </mxCell>
        <mxCell id="evVA_SM7a0cTugfseml1-217" value="&lt;font style=&quot;font-size: 10px;&quot;&gt;Elegir al gusto&lt;/font&gt;" style="text;html=1;align=center;verticalAlign=middle;resizable=0;points=[];autosize=1;strokeColor=none;fillColor=none;fontSize=16;" vertex="1" parent="WIyWlLk6GJQsqaUBKTNV-1">
          <mxGeometry x="1367" y="828" width="81" height="31" as="geometry" />
        </mxCell>
        <mxCell id="evVA_SM7a0cTugfseml1-221" style="edgeStyle=none;curved=1;rounded=0;orthogonalLoop=1;jettySize=auto;html=1;exitX=1;exitY=0.5;exitDx=0;exitDy=0;entryX=0;entryY=0.5;entryDx=0;entryDy=0;fontSize=12;startSize=8;endSize=8;" edge="1" parent="WIyWlLk6GJQsqaUBKTNV-1" source="evVA_SM7a0cTugfseml1-218" target="evVA_SM7a0cTugfseml1-220">
          <mxGeometry relative="1" as="geometry" />
        </mxCell>
        <mxCell id="evVA_SM7a0cTugfseml1-218" value="Ofertas" style="swimlane;fontStyle=0;childLayout=stackLayout;horizontal=1;startSize=30;horizontalStack=0;resizeParent=1;resizeParentMax=0;resizeLast=0;collapsible=1;marginBottom=0;whiteSpace=wrap;html=1;" vertex="1" parent="WIyWlLk6GJQsqaUBKTNV-1">
          <mxGeometry x="350" y="2354" width="68" height="30" as="geometry" />
        </mxCell>
        <mxCell id="evVA_SM7a0cTugfseml1-227" style="edgeStyle=orthogonalEdgeStyle;rounded=0;orthogonalLoop=1;jettySize=auto;html=1;exitX=0.5;exitY=1;exitDx=0;exitDy=0;entryX=0.5;entryY=0;entryDx=0;entryDy=0;fontSize=12;startSize=8;endSize=8;" edge="1" parent="WIyWlLk6GJQsqaUBKTNV-1" source="evVA_SM7a0cTugfseml1-220" target="evVA_SM7a0cTugfseml1-225">
          <mxGeometry relative="1" as="geometry">
            <Array as="points">
              <mxPoint x="585" y="2449" />
              <mxPoint x="384" y="2449" />
            </Array>
          </mxGeometry>
        </mxCell>
        <mxCell id="evVA_SM7a0cTugfseml1-220" value="AÃ±adir al carrito" style="swimlane;fontStyle=0;childLayout=stackLayout;horizontal=1;startSize=30;horizontalStack=0;resizeParent=1;resizeParentMax=0;resizeLast=0;collapsible=1;marginBottom=0;whiteSpace=wrap;html=1;" vertex="1" parent="WIyWlLk6GJQsqaUBKTNV-1">
          <mxGeometry x="551" y="2354" width="68" height="30" as="geometry" />
        </mxCell>
        <mxCell id="evVA_SM7a0cTugfseml1-222" value="&lt;font style=&quot;font-size: 10px;&quot;&gt;Seleccionar una&lt;/font&gt;" style="text;html=1;align=center;verticalAlign=middle;resizable=0;points=[];autosize=1;strokeColor=none;fillColor=none;fontSize=16;" vertex="1" parent="WIyWlLk6GJQsqaUBKTNV-1">
          <mxGeometry x="440" y="2339" width="90" height="31" as="geometry" />
        </mxCell>
        <mxCell id="evVA_SM7a0cTugfseml1-231" style="edgeStyle=none;curved=1;rounded=0;orthogonalLoop=1;jettySize=auto;html=1;exitX=0.5;exitY=1;exitDx=0;exitDy=0;entryX=0.5;entryY=0;entryDx=0;entryDy=0;fontSize=12;startSize=8;endSize=8;" edge="1" parent="WIyWlLk6GJQsqaUBKTNV-1" source="evVA_SM7a0cTugfseml1-225" target="evVA_SM7a0cTugfseml1-230">
          <mxGeometry relative="1" as="geometry" />
        </mxCell>
        <mxCell id="evVA_SM7a0cTugfseml1-225" value="Carrito" style="swimlane;fontStyle=0;childLayout=stackLayout;horizontal=1;startSize=30;horizontalStack=0;resizeParent=1;resizeParentMax=0;resizeLast=0;collapsible=1;marginBottom=0;whiteSpace=wrap;html=1;" vertex="1" parent="WIyWlLk6GJQsqaUBKTNV-1">
          <mxGeometry x="350" y="2500" width="68" height="30" as="geometry">
            <mxRectangle x="667" y="423" width="78" height="30" as="alternateBounds" />
          </mxGeometry>
        </mxCell>
        <mxCell id="evVA_SM7a0cTugfseml1-230" value="Pagar" style="swimlane;fontStyle=0;childLayout=stackLayout;horizontal=1;startSize=30;horizontalStack=0;resizeParent=1;resizeParentMax=0;resizeLast=0;collapsible=1;marginBottom=0;whiteSpace=wrap;html=1;" vertex="1" parent="WIyWlLk6GJQsqaUBKTNV-1">
          <mxGeometry x="350" y="2601" width="68" height="30" as="geometry">
            <mxRectangle x="667" y="423" width="78" height="30" as="alternateBounds" />
          </mxGeometry>
        </mxCell>
        <mxCell id="evVA_SM7a0cTugfseml1-232" value="Perfil" style="swimlane;fontStyle=0;childLayout=stackLayout;horizontal=1;startSize=30;horizontalStack=0;resizeParent=1;resizeParentMax=0;resizeLast=0;collapsible=1;marginBottom=0;whiteSpace=wrap;html=1;" vertex="1" parent="WIyWlLk6GJQsqaUBKTNV-1">
          <mxGeometry x="350" y="1839" width="68" height="30" as="geometry" />
        </mxCell>
        <mxCell id="evVA_SM7a0cTugfseml1-234" value="Editar perfil" style="swimlane;fontStyle=0;childLayout=stackLayout;horizontal=1;startSize=30;horizontalStack=0;resizeParent=1;resizeParentMax=0;resizeLast=0;collapsible=1;marginBottom=0;whiteSpace=wrap;html=1;" vertex="1" parent="WIyWlLk6GJQsqaUBKTNV-1">
          <mxGeometry x="350" y="1936" width="68" height="30" as="geometry" />
        </mxCell>
        <mxCell id="evVA_SM7a0cTugfseml1-235" value="" style="endArrow=classic;startArrow=classic;html=1;rounded=0;fontSize=12;startSize=8;endSize=8;curved=1;entryX=0.5;entryY=1;entryDx=0;entryDy=0;exitX=0.5;exitY=0;exitDx=0;exitDy=0;" edge="1" parent="WIyWlLk6GJQsqaUBKTNV-1" source="evVA_SM7a0cTugfseml1-234" target="evVA_SM7a0cTugfseml1-232">
          <mxGeometry width="50" height="50" relative="1" as="geometry">
            <mxPoint x="261" y="1981" as="sourcePoint" />
            <mxPoint x="311" y="1931" as="targetPoint" />
          </mxGeometry>
        </mxCell>
      </root>
    </mxGraphModel>
  </diagram>
</mxfile>
